<?xml version="1.0" encoding="UTF-8" standalone="no"?>
<!-- Created with Inkscape (http://www.inkscape.org/) -->

<svg
   xmlns:dc="http://purl.org/dc/elements/1.1/"
   xmlns:cc="http://creativecommons.org/ns#"
   xmlns:rdf="http://www.w3.org/1999/02/22-rdf-syntax-ns#"
   xmlns:svg="http://www.w3.org/2000/svg"
   xmlns="http://www.w3.org/2000/svg"
   xmlns:sodipodi="http://sodipodi.sourceforge.net/DTD/sodipodi-0.dtd"
   xmlns:inkscape="http://www.inkscape.org/namespaces/inkscape"
   id="svg2"
   version="1.1"
   inkscape:version="0.48.3.1 r9886"
   width="412.5"
   height="230"
   xml:space="preserve"
   sodipodi:docname="bapc-logo-white-notext.pdf"><metadata
     id="metadata8"><rdf:RDF><cc:Work
         rdf:about=""><dc:format>image/svg+xml</dc:format><dc:type
           rdf:resource="http://purl.org/dc/dcmitype/StillImage" /><dc:title></dc:title></cc:Work></rdf:RDF></metadata><defs
     id="defs6"><clipPath
       clipPathUnits="userSpaceOnUse"
       id="clipPath18"><path
         d="M 0,184 330,184 330,0 0,0 0,184 z"
         id="path20" /></clipPath><clipPath
       clipPathUnits="userSpaceOnUse"
       id="clipPath58"><path
         d="m 86.1,91 c 0,-43.999 35.668,-79.667 79.667,-79.667 l 0,0 c 44,0 79.668,35.668 79.668,79.667 l 0,0 c 0,43.999 -35.668,79.668 -79.668,79.668 l 0,0 C 121.768,170.668 86.1,134.999 86.1,91 m 2.213,0 c 0,42.913 34.787,77.701 77.7,77.701 l 0,0 c 42.913,0 77.701,-34.788 77.701,-77.701 l 0,0 c 0,-42.913 -34.788,-77.701 -77.701,-77.701 l 0,0 c -42.913,0 -77.7,34.788 -77.7,77.701"
         id="path60" /></clipPath><linearGradient
       x1="0"
       y1="0"
       x2="1"
       y2="0"
       gradientUnits="userSpaceOnUse"
       gradientTransform="matrix(159.33545,0,0,-159.33545,86.100098,91)"
       spreadMethod="pad"
       id="linearGradient66"><stop
         style="stop-opacity:1;stop-color:#193256"
         offset="0"
         id="stop68" /><stop
         style="stop-opacity:1;stop-color:#0e1223"
         offset="1"
         id="stop70" /></linearGradient><clipPath
       clipPathUnits="userSpaceOnUse"
       id="clipPath78"><path
         d="M 0,184 330,184 330,0 0,0 0,184 z"
         id="path80" /></clipPath></defs><sodipodi:namedview
     pagecolor="#ffffff"
     bordercolor="#666666"
     borderopacity="1"
     objecttolerance="10"
     gridtolerance="10"
     guidetolerance="10"
     inkscape:pageopacity="0"
     inkscape:pageshadow="2"
     inkscape:window-width="1615"
     inkscape:window-height="1026"
     id="namedview4"
     showgrid="false"
     inkscape:zoom="8.2086956"
     inkscape:cx="295.9459"
     inkscape:cy="146.31393"
     inkscape:window-x="65"
     inkscape:window-y="24"
     inkscape:window-maximized="1"
     inkscape:current-layer="g10" /><g
     id="g10"
     inkscape:groupmode="layer"
     inkscape:label="bapc-logo-white-notext"
     transform="matrix(1.25,0,0,-1.25,0,230)"><path
       d="M 0,0 330,0 330,184 0,184 0,0 z"
       style="fill:none;fill-opacity:1;fill-rule:nonzero;stroke:none"
       id="path12" /><g
       id="g14"><g
         id="g16"
         clip-path="url(#clipPath18)"><g
           id="g22"
           transform="translate(253.7515,148.8672)"><path
             d="m 0,0 c 0,0 18.152,-2.713 19.345,7.334 0.561,4.84 -2.441,6.424 -5.008,6.018 C 12.008,12.965 9.974,11.03 12.134,7.679 13.271,5.87 15.543,2.321 0,0"
             style="fill:#ffffff;fill-opacity:1;fill-rule:nonzero;stroke:none"
             id="path24" /></g><g
           id="g26"
           transform="translate(210.9897,23.6016)"><path
             d="m 0,0 c -1.189,-4.603 3.959,-5.725 3.959,-5.725 -0.477,4.179 1.655,8.219 3.815,8.471 2.217,0.266 6.229,-8.976 6.229,-8.976 1.684,2.467 -0.238,6.648 -0.238,6.648 2.44,0.953 7.085,-4.909 7.085,-4.909 1.459,3.675 -2.049,7.854 -2.049,7.854 3.647,1.234 8.627,-4.685 8.627,-4.685 C 27.685,10.473 18.685,11.151 13.62,11.409 9.512,7.135 4.952,3.3 0,0"
             style="fill:#ffffff;fill-opacity:1;fill-rule:nonzero;stroke:none"
             id="path28" /></g><g
           id="g30"
           transform="translate(267.0503,44.8599)"><path
             d="m 0,0 c 6.158,-1.794 2.693,-10.784 2.693,-10.784 5.864,0.966 4.882,5.511 4.882,5.511 6.874,0.196 6.214,-6.984 6.214,-6.984 5.682,2.439 1.291,7.656 2.904,8.33 3.326,1.318 7.183,-3.787 7.183,-3.787 1.318,6.199 -4.545,11.768 -4.545,11.768 2.258,1.613 8.206,0.476 8.206,0.476 C 24.114,14.67 13.93,7.98 12.008,6.508 10.296,5.259 9.217,4.054 6.901,6.002 c -5.569,4.852 -14,11.094 -14,11.094 13.93,0.266 13.93,8.358 13.93,8.358 -7.084,0 -9.764,1.978 -11.236,4.181 -4.706,7.082 -10.462,10.509 -15.428,12.196 C -20.504,30.26 -23.596,19.346 -28.598,9.566 -19.82,2.563 -1.394,0.365 0,0"
             style="fill:#ffffff;fill-opacity:1;fill-rule:nonzero;stroke:none"
             id="path32" /></g><g
           id="g34"
           transform="translate(238.8804,157.7803)"><path
             d="m 0,0 c 0,0.546 0.184,1.052 0.478,1.465 l -2.525,0.148 c -0.561,-0.056 -1.01,0 -1.039,0.588 -0.027,0.617 0.352,0.716 0.94,0.772 L 5.275,3.324 C 5.865,3.379 6.397,2.889 6.453,2.313 6.482,1.711 6.047,1.227 5.472,1.164 L 3.858,1.269 C 4.041,0.876 4.182,0.477 4.182,0 4.182,-1.305 3.27,-2.412 2.076,-2.412 0.927,-2.412 0,-1.305 0,0 m 70.002,-73.498 c -3.675,6.635 -12.709,6.13 -14.898,1.965 -0.786,-1.445 -1.964,-3.927 -3.942,-0.982 -2.735,4.159 -15.894,17.369 -15.894,17.369 23.231,0.765 16.372,15.456 16.372,15.456 -1.221,-1.452 -3.382,-3.675 -6.356,-4.657 -7.463,-2.496 -11.503,2.441 -8.066,4.657 12.921,8.316 22.011,21.338 22.011,21.338 9.778,-0.988 11.012,4.867 11.012,4.867 -2.708,-0.716 -8.557,-0.224 -8.557,1.739 0,2.216 8.318,5.891 8.318,5.891 -1.936,1.682 -9.987,-0.618 -9.987,-0.618 -0.282,1.221 5.583,7.966 5.583,7.966 -4.181,0 -9.273,-4.291 -9.273,-4.291 -1.207,2.686 1.669,7.714 1.669,7.714 C 49.212,0.49 51.162,-11.255 51.162,-11.255 L 29.881,-28.892 c 0.729,8.072 -1.964,11.501 -1.964,11.501 -8.305,-15.925 -17.956,-12.005 -20.79,-9.565 -4.994,4.355 -1.516,7.44 1.347,8.135 2.216,0.469 4.432,-0.638 5.274,0.715 1.264,2.012 0.59,4.768 -0.728,5.385 -1.6,0.715 -9.569,-2.496 -10.944,-2.258 -1.305,0.232 1.74,8.703 3.873,9.082 7.856,1.416 8.543,0.89 8.655,2.236 0.239,2.833 0.646,4.769 -0.743,5.274 C 10.69,2.762 7.828,4.382 7.828,4.382 4.041,9.192 2.33,7.531 -1.01,7.531 c -2.804,0 -6.929,-1.886 -9.23,-2.489 -1.067,-0.288 -2.791,-0.512 -3.395,0.105 -5.078,5.07 -10.549,-0.105 -10.549,-0.105 2.315,0.231 6.229,-2.827 5.022,-3.675 -1.252,-0.88 -1.6,-2.927 -1.528,-5.186 17.146,-14.381 28.273,-35.679 29.105,-59.602 4.548,1.551 7.523,3.149 7.523,3.149 13.452,-14.221 24.941,-16.156 25.923,-16.408 1.067,-0.253 2.918,-0.968 2.918,-3.942 0,-6.1 2.974,-7.84 2.974,-7.84 0,1.235 0,5.639 4.657,5.919 4.883,0.253 5.836,-7.11 5.836,-7.11 4.897,2.187 2.47,10.504 2.47,10.504 4.138,-0.224 7.35,-4.137 7.35,-4.137 2.175,5.638 -6.845,8.793 -6.845,8.793 1.711,1.29 8.781,0.995 8.781,0.995"
             style="fill:#ffffff;fill-opacity:1;fill-rule:nonzero;stroke:none"
             id="path36" /></g><g
           id="g38"
           transform="translate(78.0146,148.5337)"><path
             d="m 0,0 c -15.544,2.321 -13.271,5.869 -12.135,7.678 2.16,3.352 0.126,5.287 -2.202,5.673 -2.568,0.407 -5.57,-1.178 -5.008,-6.017 C -18.153,-2.714 0,0 0,0"
             style="fill:#ffffff;fill-opacity:1;fill-rule:nonzero;stroke:none"
             id="path40" /></g><g
           id="g42"
           transform="translate(93.3477,21.9458)"><path
             d="m 0,0 c 0,0 4.98,5.918 8.627,4.685 0,0 -3.507,-4.179 -2.048,-7.854 0,0 4.644,5.862 7.085,4.909 0,0 -1.922,-4.18 -0.239,-6.649 0,0 4.012,9.243 6.229,8.976 2.16,-0.252 4.292,-4.292 3.816,-8.47 0,0 5.377,1.168 3.877,6.024 C 22.5,4.847 18.025,8.581 13.982,12.74 8.953,12.487 -0.259,11.931 0,0"
             style="fill:#ffffff;fill-opacity:1;fill-rule:nonzero;stroke:none"
             id="path44" /></g><g
           id="g46"
           transform="translate(69.1206,74.1606)"><path
             d="m 0,0 c -1.473,-2.203 -4.152,-4.181 -11.237,-4.181 0,0 0,-8.091 13.93,-8.358 0,0 -8.431,-6.241 -14,-11.093 -2.315,-1.949 -3.395,-0.743 -5.107,0.506 -1.921,1.472 -12.106,8.161 -15.529,-1.978 0,0 5.948,1.136 8.207,-0.477 0,0 -5.864,-5.569 -4.546,-11.768 0,0 3.858,5.105 7.183,3.787 1.613,-0.673 -2.777,-5.891 2.904,-8.33 0,0 -0.659,7.181 6.215,6.984 0,0 -0.982,-4.545 4.881,-5.511 0,0 -3.464,8.99 2.694,10.784 1.394,0.366 19.856,2.569 28.623,9.588 -5.043,9.755 -8.175,20.651 -8.897,32.206 C 10.379,10.458 4.673,7.031 0,0"
             style="fill:#ffffff;fill-opacity:1;fill-rule:nonzero;stroke:none"
             id="path48" /></g><g
           id="g50"
           transform="translate(94.9326,159.0591)"><path
             d="m 0,0 -2.525,-0.147 c 0.295,-0.414 0.477,-0.919 0.477,-1.466 0,-1.304 -0.926,-2.412 -2.076,-2.412 -1.193,0 -2.105,1.108 -2.105,2.412 0,0.477 0.141,0.876 0.323,1.269 l -1.613,-0.105 c -0.576,0.063 -1.01,0.547 -0.982,1.15 0.056,0.575 0.589,1.066 1.178,1.01 L 0.099,1.36 C 0.688,1.304 1.066,1.206 1.038,0.588 1.01,0 0.561,-0.056 0,0 m 22.137,3.429 c 0,0 -5.471,5.175 -10.55,0.105 C 10.984,2.917 9.259,3.141 8.193,3.429 5.892,4.032 1.768,5.918 -1.038,5.918 c -3.339,0 -5.05,1.662 -8.838,-3.148 0,0 -2.862,-1.621 -6.032,-2.77 -1.389,-0.505 -0.982,-2.441 -0.743,-5.273 0.111,-1.347 0.799,-0.821 8.655,-2.237 2.132,-0.379 5.177,-8.85 3.872,-9.081 -1.375,-0.239 -9.343,2.972 -10.942,2.258 -1.319,-0.618 -1.993,-3.374 -0.73,-5.386 0.842,-1.353 3.058,-0.245 5.275,-0.715 2.862,-0.694 6.341,-3.78 1.347,-8.134 -2.834,-2.441 -12.486,-6.361 -20.79,9.564 0,0 -2.694,-3.429 -1.965,-11.5 l -21.28,17.636 c 0,0 1.949,11.745 -6.833,16.171 0,0 2.876,-5.028 1.669,-7.714 0,0 -5.092,4.291 -9.272,4.291 0,0 5.864,-6.745 5.583,-7.966 0,0 -8.052,2.3 -9.988,0.618 0,0 8.319,-3.675 8.319,-5.891 0,-1.963 -5.85,-2.454 -8.558,-1.739 0,0 1.235,-5.855 11.013,-4.866 0,0 9.09,-13.022 22.01,-21.339 3.437,-2.216 -0.603,-7.153 -8.066,-4.656 -2.974,0.981 -5.134,3.205 -6.355,4.656 0,0 -6.86,-14.691 16.372,-15.455 0,0 -13.159,-13.211 -15.894,-17.37 -1.979,-2.944 -3.157,-0.463 -3.943,0.982 -2.188,4.165 -11.223,4.67 -14.898,-1.964 0,0 7.071,0.295 8.782,-0.996 0,0 -9.021,-3.155 -6.846,-8.792 0,0 3.212,3.913 7.351,4.136 0,0 -2.427,-8.317 2.469,-10.504 0,0 0.954,7.363 5.836,7.111 4.657,-0.281 4.657,-4.685 4.657,-5.92 0,0 2.974,1.74 2.974,7.841 0,2.973 1.852,3.688 2.918,3.941 0.982,0.252 12.471,2.187 25.925,16.408 0,0 2.91,-1.565 7.379,-3.101 0.755,24.107 11.959,45.575 29.258,60.014 0.01,2.074 -0.372,3.906 -1.538,4.726 -1.207,0.849 2.707,3.907 5.022,3.675"
             style="fill:#ffffff;fill-opacity:1;fill-rule:nonzero;stroke:none"
             id="path52" /></g></g></g><g
       id="g54"><g
         id="g56"
         clip-path="url(#clipPath58)"><g
           id="g62"><g
             id="g64"><path
               d="m 86.1,91 c 0,-43.999 35.668,-79.667 79.667,-79.667 l 0,0 c 44,0 79.668,35.668 79.668,79.667 l 0,0 c 0,43.999 -35.668,79.668 -79.668,79.668 l 0,0 C 121.768,170.668 86.1,134.999 86.1,91 m 2.213,0 c 0,42.913 34.787,77.701 77.7,77.701 l 0,0 c 42.913,0 77.701,-34.788 77.701,-77.701 l 0,0 c 0,-42.913 -34.788,-77.701 -77.701,-77.701 l 0,0 c -42.913,0 -77.7,34.788 -77.7,77.701"
               style="fill:url(#linearGradient66);stroke:none"
               id="path72" /></g></g></g></g><g
       id="g74"><g
         id="g76"
         clip-path="url(#clipPath78)"><g
           id="g82"
           transform="translate(166.0132,13.2993)"><path
             d="m 0,0 c -42.913,0 -77.701,34.788 -77.701,77.701 0,42.912 34.788,77.7 77.701,77.7 42.913,0 77.701,-34.788 77.701,-77.7 C 77.701,34.788 42.913,0 0,0 m -0.246,157.368 c -43.999,0 -79.667,-35.668 -79.667,-79.667 0,-43.999 35.668,-79.668 79.667,-79.668 43.999,0 79.668,35.669 79.668,79.668 0,43.999 -35.669,79.667 -79.668,79.667"
             style="fill:#ffffff;fill-opacity:1;fill-rule:nonzero;stroke:none"
             id="path84" /></g><g
           id="g86"
           transform="translate(219.293,74.1216)"><path
             d="m 0,0 c 3.079,0 6.157,0.627 8.152,1.596 l 0.969,-3.99 C 7.354,-3.306 3.648,-4.218 -1.026,-4.218 c -10.831,0 -18.926,6.841 -18.926,19.496 0,12.085 8.152,20.18 20.066,20.18 4.732,0 7.81,-1.026 9.121,-1.71 L 7.981,29.701 c -1.824,0.912 -4.503,1.596 -7.696,1.596 -9.007,0 -14.993,-5.758 -14.993,-15.848 C -14.708,5.986 -9.292,0 0,0 m -27.302,15.677 c -2.679,-2.793 -6.898,-4.219 -11.743,-4.219 -1.483,0 -2.851,0.058 -3.991,0.342 l 0,-15.391 -4.96,0 0,37.966 c 2.394,0.399 5.53,0.741 9.52,0.741 4.903,0 8.495,-1.14 10.775,-3.192 2.052,-1.824 3.363,-4.618 3.363,-8.038 0,-3.477 -1.026,-6.214 -2.964,-8.209 m -31.635,-19.268 -4.104,12.085 -13.625,0 -3.99,-12.085 -5.131,0 13.112,38.423 5.928,0 13.112,-38.423 -5.302,0 z m -33.915,3.249 c -2.622,-2.451 -6.954,-3.591 -13.225,-3.591 -3.421,0 -6.043,0.227 -7.696,0.456 l 0,37.738 c 2.167,0.513 5.644,0.855 9.064,0.855 4.96,0 8.152,-0.855 10.489,-2.793 1.995,-1.482 3.25,-3.762 3.25,-6.784 0,-3.762 -2.509,-7.012 -6.499,-8.437 l 0,-0.171 c 3.649,-0.855 7.924,-3.876 7.924,-9.577 0,-3.307 -1.311,-5.872 -3.307,-7.696 m 113.378,41.72 -148.103,0 c -2.549,-7.707 -3.948,-15.938 -3.948,-24.5 0,-9.682 1.777,-18.945 5.001,-27.5 l 145.997,0 c 3.224,8.555 5.002,17.818 5.002,27.5 0,8.562 -1.4,16.793 -3.949,24.5"
             style="fill:#ffffff;fill-opacity:1;fill-rule:nonzero;stroke:none"
             id="path88" /></g><g
           id="g90"
           transform="translate(149.4683,104.5635)"><path
             d="m 0,0 -0.114,0 c -0.57,-2.224 -1.14,-4.618 -1.938,-6.955 l -3.763,-11.116 11.629,0 -3.819,11.059 C 1.14,-4.504 0.57,-2.224 0,0"
             style="fill:#ffffff;fill-opacity:1;fill-rule:nonzero;stroke:none"
             id="path92" /></g><g
           id="g94"
           transform="translate(123.249,99.1475)"><path
             d="m 0,0 c 0,4.447 -3.363,6.271 -8.38,6.271 -2.28,0 -3.591,-0.171 -4.39,-0.342 l 0,-12.428 4.504,0 C -3.078,-6.499 0,-3.705 0,0"
             style="fill:#ffffff;fill-opacity:1;fill-rule:nonzero;stroke:none"
             id="path96" /></g><g
           id="g98"
           transform="translate(114.584,88.9434)"><path
             d="m 0,0 -4.104,0 0,-14.65 c 1.026,-0.172 2.394,-0.229 4.161,-0.229 5.131,0 9.862,1.881 9.862,7.468 C 9.919,-2.223 5.416,0 0,0"
             style="fill:#ffffff;fill-opacity:1;fill-rule:nonzero;stroke:none"
             id="path100" /></g><g
           id="g102"
           transform="translate(180.9316,105.3047)"><path
             d="m 0,0 c -2.167,0 -3.819,-0.171 -4.675,-0.399 l 0,-14.936 c 1.083,-0.285 2.451,-0.399 4.105,-0.399 5.986,0 9.634,2.964 9.634,8.152 C 9.064,-2.452 5.416,0 0,0"
             style="fill:#ffffff;fill-opacity:1;fill-rule:nonzero;stroke:none"
             id="path104" /></g><g
           id="g106"
           transform="translate(127.0938,30.585)"><path
             d="m 0,0 0,3.35 3.023,2.732 c 5.207,4.661 7.72,7.319 7.757,10.087 0,1.93 -1.13,3.46 -3.861,3.46 -2.04,0 -3.824,-1.02 -5.062,-1.93 l -1.565,3.933 c 1.748,1.347 4.551,2.44 7.72,2.44 5.39,0 8.303,-3.132 8.303,-7.429 0,-3.97 -2.841,-7.138 -6.3,-10.197 l -2.186,-1.821 0,-0.073 8.96,0 L 16.789,0 0,0 z"
             style="fill:#ffffff;fill-opacity:1;fill-rule:nonzero;stroke:none"
             id="path108" /></g><g
           id="g110"
           transform="translate(174.5435,49.3403)"><path
             d="m 0,0 -0.073,0 -4.515,-2.149 -0.912,4.152 6.301,2.914 4.553,0 0,-23.672 -5.354,0 L 0,0 z"
             style="fill:#ffffff;fill-opacity:1;fill-rule:nonzero;stroke:none"
             id="path112" /></g><g
           id="g114"
           transform="translate(203.4941,49.7041)"><path
             d="m 0,0 -9.177,0 -0.511,-3.605 c 0.511,0.036 0.948,0.072 1.53,0.072 2.258,0 4.589,-0.509 6.228,-1.711 1.784,-1.202 2.877,-3.169 2.877,-5.973 0,-4.406 -3.787,-8.303 -10.16,-8.303 -2.878,0 -5.281,0.656 -6.593,1.348 l 1.021,4.151 c 1.019,-0.51 3.168,-1.165 5.316,-1.165 2.295,0 4.735,1.093 4.735,3.605 0,2.477 -1.931,3.97 -6.664,3.97 -1.311,0 -2.222,-0.073 -3.169,-0.219 L -13.037,4.553 0,4.553 0,0 z"
             style="fill:#ffffff;fill-opacity:1;fill-rule:nonzero;stroke:none"
             id="path116" /></g><g
           id="g118"
           transform="translate(163.9834,36.8623)"><path
             d="M 0,0 C -0.117,-0.893 -0.375,-1.425 -0.675,-2.04 -0.814,-2.331 -0.886,-2.758 -1.017,-3.1 -1.312,-3.184 -1.651,-3.167 -1.9,-3.27 c -0.536,-0.221 -1.004,-0.41 -1.699,-0.335 -0.464,0.049 -1.543,0.318 -1.485,1.667 0.071,1.657 1.674,2.008 1.82,2.03 0.145,0.035 0.315,0.2 0.407,0.415 0.03,0.087 0.722,2.094 1.98,1.77 C 0.149,2.01 0.082,0.594 0,0 m -10.643,-1.938 c 0.058,-1.349 -1.02,-1.618 -1.488,-1.667 -0.691,-0.075 -1.157,0.114 -1.699,0.335 -0.246,0.103 -0.585,0.086 -0.878,0.17 -0.133,0.342 -0.204,0.769 -0.344,1.06 -0.3,0.615 -0.559,1.147 -0.677,2.04 -0.077,0.594 -0.152,2.01 0.876,2.277 1.258,0.324 1.953,-1.683 1.981,-1.77 0.099,-0.215 0.262,-0.38 0.41,-0.415 0.145,-0.022 1.746,-0.373 1.819,-2.03 M 0.867,-2.99 c -0.242,0.054 -0.471,0.103 -0.681,0.119 0.018,0.033 0.032,0.065 0.047,0.097 0.313,0.648 0.669,1.377 0.822,2.542 C 1.32,1.772 0.642,3.286 -0.667,3.626 -1.918,3.95 -2.894,2.946 -3.335,1.881 l -3.851,6.402 2.237,3.718 3.832,-3.847 0.742,1.241 -1.91,1.921 0.739,1.236 1.914,-1.927 1.492,2.475 -0.958,0.963 -0.741,-1.241 -0.96,0.971 0.745,1.23 -0.96,0.961 -1.487,-2.469 -0.959,0.958 1.49,2.48 -0.843,0.841 -5.052,-8.383 -5.048,8.383 -0.844,-0.841 1.487,-2.48 -0.959,-0.958 -1.489,2.469 -0.955,-0.961 0.746,-1.23 -0.959,-0.971 -0.738,1.241 -0.963,-0.963 1.487,-2.475 1.916,1.927 0.746,-1.236 -1.916,-1.921 0.744,-1.241 3.833,3.847 2.235,-3.718 -3.853,-6.402 c -0.441,1.065 -1.416,2.069 -2.665,1.745 -1.312,-0.34 -1.989,-1.854 -1.723,-3.858 0.159,-1.165 0.505,-1.894 0.823,-2.542 0.017,-0.032 0.032,-0.064 0.045,-0.097 -0.208,-0.016 -0.435,-0.065 -0.682,-0.119 -0.287,-0.078 -0.477,-0.439 -0.418,-0.82 0.058,-0.367 0.339,-0.615 0.628,-0.537 0.388,0.105 0.714,0.127 0.999,0.114 0.088,-0.359 0.146,-0.769 0.163,-1.279 0.021,-0.384 0.276,-0.672 0.566,-0.656 0.297,0.027 0.52,0.351 0.506,0.729 -0.013,0.323 -0.039,0.615 -0.076,0.89 0.024,-0.016 0.054,-0.022 0.08,-0.03 0.566,-0.24 1.2,-0.502 2.108,-0.402 1.574,0.175 2.536,1.393 2.465,3.119 -0.068,1.649 -1.164,2.661 -1.972,2.906 l 3.683,6.12 3.685,-6.12 c -0.807,-0.245 -1.903,-1.257 -1.973,-2.906 -0.071,-1.726 0.896,-2.944 2.466,-3.119 0.905,-0.1 1.543,0.162 2.108,0.402 0.029,0.008 0.057,0.014 0.085,0.03 -0.042,-0.275 -0.064,-0.567 -0.081,-0.89 -0.018,-0.378 0.207,-0.702 0.503,-0.729 0.299,-0.016 0.547,0.272 0.564,0.656 0.021,0.51 0.086,0.92 0.169,1.279 0.285,0.013 0.609,-0.009 0.997,-0.114 0.291,-0.078 0.569,0.17 0.63,0.537 0.057,0.381 -0.131,0.742 -0.421,0.82"
             style="fill:#ffffff;fill-opacity:1;fill-rule:nonzero;stroke:none"
             id="path120" /></g><g
           id="g122"
           transform="translate(154.5347,148.5552)"><path
             d="m 0,0 c -2.397,-1.19 -4.556,-2.933 -6.473,-5.228 -1.918,-2.294 -2.877,-3.969 -2.877,-5.024 0,-0.38 0.172,-0.571 0.517,-0.571 0.811,0 2.233,1.12 4.269,3.359 C -2.529,-5.225 -1.009,-2.737 0,0 m -24.994,-17.89 c -1.78,0.662 -3.553,0.994 -5.319,0.994 -2.638,0 -3.958,-0.783 -3.958,-2.348 0,-1.318 0.97,-1.977 2.909,-1.977 1.987,0 4.11,1.11 6.368,3.331 m 3.447,0.636 c 4.246,-1.651 7.156,-2.476 8.733,-2.476 0.17,0 0.414,0.033 0.728,0.101 0.314,0.067 0.544,0.101 0.692,0.101 0.111,0 0.167,-0.055 0.167,-0.164 0,-0.388 -0.375,-0.734 -1.124,-1.037 -0.626,-0.255 -1.178,-0.382 -1.656,-0.382 -1.621,0 -4.58,0.84 -8.876,2.521 -2.6,-2.38 -5.25,-3.57 -7.948,-3.57 -1.091,0 -2.011,0.197 -2.759,0.589 -0.945,0.503 -1.417,1.258 -1.417,2.264 0,1.226 0.743,2.239 2.228,3.036 1.253,0.663 2.554,0.994 3.904,0.994 1.646,0 3.432,-0.393 5.36,-1.182 l 9.548,10.181 c 2.649,2.847 4.574,4.799 5.777,5.855 2.871,2.514 5.202,3.773 6.994,3.773 1.534,0 2.381,-0.657 2.54,-1.97 0.637,0.233 1.042,0.35 1.215,0.35 0.159,0 0.239,-0.105 0.239,-0.313 0,-0.172 -0.191,-0.344 -0.571,-0.515 L 1.417,0.589 c -0.135,-2.307 -1.484,-4.976 -4.049,-8.006 -2.565,-3.031 -4.559,-4.546 -5.982,-4.546 -1.018,0 -1.527,0.465 -1.527,1.398 0,1.337 0.961,3.199 2.885,5.586 1.924,2.386 4.391,4.365 7.403,5.936 0.024,0.221 0.037,0.374 0.037,0.46 0,0.711 -0.325,1.068 -0.976,1.068 -1.178,0 -3.099,-1.264 -5.764,-3.792 -0.996,-0.945 -2.683,-2.707 -5.059,-5.285 l -6,-6.5 -3.932,-4.162 z"
             style="fill:#ffffff;fill-opacity:1;fill-rule:nonzero;stroke:none"
             id="path124" /></g><g
           id="g126"
           transform="translate(150.6206,131.6777)"><path
             d="M 0,0 C 1.128,0.552 2.319,1.3 3.57,2.245 5.239,3.484 6.074,4.466 6.074,5.19 6.074,5.484 5.938,5.632 5.668,5.632 4.871,5.632 3.785,4.896 2.411,3.423 1.185,2.085 0.38,0.944 0,0 m -2.43,-1.031 c -0.613,-0.147 -1.766,-0.712 -3.46,-1.694 -1.496,-0.858 -2.632,-1.288 -3.404,-1.288 -0.148,0 -0.221,0.082 -0.221,0.246 0,0.227 0.159,0.366 0.478,0.417 0.748,0.121 1.804,0.579 3.165,1.372 1.498,0.853 2.718,1.39 3.664,1.609 0.563,1.363 1.729,2.792 3.497,4.289 1.877,1.607 3.478,2.411 4.803,2.411 0.982,0 1.473,-0.417 1.473,-1.252 0,-1.092 -1.038,-2.282 -3.111,-3.57 -1.522,-0.957 -3.08,-1.706 -4.675,-2.246 -0.172,-0.389 -0.258,-0.798 -0.258,-1.224 0,-0.634 0.224,-1.048 0.667,-1.243 0.224,-0.086 0.644,-0.14 1.262,-0.165 0.445,-0.012 0.667,-0.119 0.667,-0.32 0,-0.314 -0.758,-0.471 -2.273,-0.471 -1.602,0 -2.403,0.693 -2.403,2.08 0,0.319 0.043,0.668 0.129,1.049"
             style="fill:#ffffff;fill-opacity:1;fill-rule:nonzero;stroke:none"
             id="path128" /></g><g
           id="g130"
           transform="translate(169.2466,141.5244)"><path
             d="m 0,0 c -0.588,0 -0.883,0.3 -0.883,0.902 0,0.502 0.3,0.957 0.902,1.362 0.54,0.367 1.079,0.552 1.619,0.552 0.638,0 0.957,-0.35 0.957,-1.049 C 2.595,1.263 2.276,0.834 1.638,0.479 1.086,0.159 0.539,0 0,0 m -8.135,-12.738 c 0,-0.331 0.361,-0.496 1.083,-0.496 0.161,0 0.242,-0.1 0.242,-0.303 0,-0.239 -0.407,-0.359 -1.223,-0.359 -0.927,0 -1.39,0.441 -1.39,1.325 0,1.03 1.368,3.184 4.104,6.46 l -5.025,-4.104 c -2.968,-2.43 -5.123,-3.644 -6.46,-3.644 -0.147,0 -0.22,0.081 -0.22,0.246 0,0.227 0.122,0.365 0.367,0.416 0.773,0.147 1.48,0.398 2.117,0.753 0.798,0.441 2.49,1.684 5.08,3.729 l 5.632,4.721 c 0.245,0.086 0.576,0.129 0.994,0.129 0.417,0 0.626,-0.239 0.626,-0.717 0,-0.514 -0.988,-1.901 -2.964,-4.16 -1.975,-2.26 -2.963,-3.592 -2.963,-3.996"
             style="fill:#ffffff;fill-opacity:1;fill-rule:nonzero;stroke:none"
             id="path132" /></g><g
           id="g134"
           transform="translate(170.7378,128.8613)"><path
             d="M 0,0 C 0.699,0 2.086,1.048 4.16,3.145 6.233,5.242 7.27,6.642 7.27,7.343 7.27,7.699 7.104,7.877 6.773,7.877 5.915,7.877 4.509,6.856 2.558,4.815 0.607,2.773 -0.368,1.297 -0.368,0.388 -0.368,0.129 -0.246,0 0,0 M -1.123,3.221 -4.602,0.552 c -1.718,-1.166 -3.048,-1.748 -3.993,-1.748 -0.148,0 -0.221,0.075 -0.221,0.227 0,0.227 0.123,0.372 0.368,0.435 0.945,0.233 1.803,0.582 2.576,1.047 1.167,0.686 2.8,1.947 4.905,3.784 2.105,1.837 3.728,3.092 4.869,3.766 0.81,0.478 1.539,0.716 2.19,0.716 1.092,0 1.663,-0.454 1.712,-1.362 1.841,2.319 3.927,4.798 6.258,7.436 3.582,4.074 5.724,6.111 6.423,6.111 0.392,0 0.589,-0.221 0.589,-0.663 0,-0.368 -0.497,-1.074 -1.491,-2.117 C 17.731,16.258 14.97,13.142 11.301,8.834 6.798,3.556 4.546,0.574 4.546,-0.111 c 0,-0.282 0.206,-0.429 0.617,-0.441 0.411,-0.013 0.616,-0.119 0.616,-0.322 0,-0.251 -0.297,-0.377 -0.891,-0.377 -0.976,0 -1.465,0.398 -1.465,1.196 0,0.638 0.405,1.632 1.215,2.981 -2.417,-2.576 -4.135,-3.865 -5.154,-3.865 -0.944,0 -1.417,0.503 -1.417,1.51 0,0.564 0.27,1.447 0.81,2.65"
             style="fill:#ffffff;fill-opacity:1;fill-rule:nonzero;stroke:none"
             id="path136" /></g><g
           id="g138"
           transform="translate(185.5171,131.6777)"><path
             d="M 0,0 C 1.128,0.552 2.319,1.3 3.571,2.245 5.239,3.484 6.074,4.466 6.074,5.19 6.074,5.484 5.938,5.632 5.669,5.632 4.871,5.632 3.785,4.896 2.411,3.423 1.185,2.085 0.38,0.944 0,0 m -2.429,-1.031 c -0.614,-0.147 -1.767,-0.712 -3.461,-1.694 -1.496,-0.858 -2.631,-1.288 -3.405,-1.288 -0.147,0 -0.221,0.082 -0.221,0.246 0,0.227 0.16,0.366 0.479,0.417 0.748,0.121 1.804,0.579 3.166,1.372 1.497,0.853 2.717,1.39 3.663,1.609 0.563,1.363 1.729,2.792 3.497,4.289 1.877,1.607 3.478,2.411 4.803,2.411 0.982,0 1.472,-0.417 1.472,-1.252 0,-1.092 -1.037,-2.282 -3.11,-3.57 -1.522,-0.957 -3.08,-1.706 -4.675,-2.246 -0.172,-0.389 -0.258,-0.798 -0.258,-1.224 0,-0.634 0.224,-1.048 0.667,-1.243 0.223,-0.086 0.644,-0.14 1.262,-0.165 0.445,-0.012 0.667,-0.119 0.667,-0.32 0,-0.314 -0.758,-0.471 -2.273,-0.471 -1.602,0 -2.403,0.693 -2.403,2.08 0,0.319 0.043,0.668 0.13,1.049"
             style="fill:#ffffff;fill-opacity:1;fill-rule:nonzero;stroke:none"
             id="path140" /></g><g
           id="g142"
           transform="translate(199.6157,133.2417)"><path
             d="m 0,0 c 3.374,2.859 5.742,4.289 7.104,4.289 0.871,0 1.307,-0.412 1.307,-1.234 0,-0.724 -0.989,-2.034 -2.963,-3.929 -1.976,-1.896 -2.964,-3.041 -2.964,-3.433 0,-0.393 0.224,-0.604 0.673,-0.635 0.447,-0.031 0.671,-0.138 0.671,-0.322 0,-0.245 -0.444,-0.368 -1.334,-0.368 -1.024,0 -1.537,0.455 -1.537,1.365 0,0.762 0.49,1.727 1.472,2.895 0.503,0.603 1.411,1.531 2.724,2.785 0.981,0.935 1.472,1.501 1.472,1.697 0,0.16 -0.109,0.24 -0.331,0.24 -0.699,0 -2.221,-0.935 -4.564,-2.804 -1.951,-1.549 -3.399,-2.822 -4.344,-3.818 -1.202,-1.266 -1.932,-1.9 -2.19,-1.9 -0.196,0 -0.375,0.095 -0.534,0.286 -0.16,0.19 -0.239,0.389 -0.239,0.597 0,0.283 0.847,1.424 2.54,3.424 L 0,2.724 -4.712,-1.104 -8.19,-3.773 c -1.767,-1.203 -3.123,-1.804 -4.068,-1.804 -0.159,0 -0.24,0.074 -0.24,0.221 0,0.221 0.173,0.368 0.516,0.442 0.467,0.085 1.012,0.269 1.638,0.552 0.897,0.392 2.724,1.705 5.485,3.939 2.478,2.012 4.263,3.552 5.356,4.62 0.184,0.184 0.472,0.405 0.865,0.662 0.196,0.074 0.405,0.11 0.626,0.11 0.207,0 0.42,-0.071 0.634,-0.211 C 2.836,4.617 2.944,4.448 2.944,4.252 2.944,4.031 1.963,2.614 0,0"
             style="fill:#ffffff;fill-opacity:1;fill-rule:nonzero;stroke:none"
             id="path144" /></g></g></g></g></svg>