<?xml version="1.0" encoding="UTF-8" standalone="no"?>
<svg
   xmlns:dc="http://purl.org/dc/elements/1.1/"
   xmlns:cc="http://creativecommons.org/ns#"
   xmlns:rdf="http://www.w3.org/1999/02/22-rdf-syntax-ns#"
   xmlns:svg="http://www.w3.org/2000/svg"
   xmlns="http://www.w3.org/2000/svg"
   version="1.1"
   id="svg3646"
   viewBox="0 0 2963.9554 610.79999"
   height="172.38133mm"
   width="836.49408mm">
  <defs
     id="defs3648" />
  <metadata
     id="metadata3651">
    <rdf:RDF>
      <cc:Work
         rdf:about="">
        <dc:format>image/svg+xml</dc:format>
        <dc:type
           rdf:resource="http://purl.org/dc/dcmitype/StillImage" />
        <dc:title></dc:title>
      </cc:Work>
    </rdf:RDF>
  </metadata>
  <g
     transform="translate(761.97775,-166.96221)"
     id="layer1">
    <path
       id="path3635"
       d="m -519.9222,472.36221 0,-305.4 2.55,0 2.55,0 0,305.4 0,305.39998 -2.55,0 -2.55,0 0,-305.39998 z m 5.4,0 0,-305.4 2.55,0 2.55,0 0,305.4 0,305.39998 -2.55,0 -2.55,0 0,-305.39998 z m -231.67499,264.17048 c -8.37375,-8.4415 -15.225,-15.4432 -15.225,-15.5593 0,-0.1162 0.3375,-0.2112 0.75,-0.2112 0.6,0 0.75,-0.15 0.75,-0.75 0,-0.6 -0.15,-0.75 -0.75,-0.75 -0.4125,0 -0.75,-0.035 -0.75,-0.078 0,-0.043 10.67521,-10.7419 23.7227,-23.775 13.04748,-13.0332 23.8482,-24.0111 24.0016,-24.3954 0.15341,-0.3844 0.16641,-0.8998 0.0289,-1.1455 -0.1375,-0.2457 -11.00572,-11.2093 -24.1516,-24.3635 -13.1459,-13.1542 -23.90162,-24.0907 -23.90162,-24.3034 0,-0.2757 0.26508,-0.3283 0.9247,-0.1835 0.84423,0.1855 0.91602,0.1419 0.825,-0.5011 -0.076,-0.5365 -0.26046,-0.6819 -0.7747,-0.6104 -0.37894,0.053 -0.675,-0.065 -0.675,-0.2682 0,-0.6521 30.39826,-30.87541 31.05427,-30.87556 0.40087,-9e-5 8.72886,8.12859 24.742,24.14988 20.66388,20.67438 24.26046,24.14998 24.99045,24.14998 0.90782,0 2.02603,-0.4783 2.37479,-1.0158 0.71302,-1.0988 47.19813,-47.28418 47.59111,-47.28418 0.56468,0 30.34737,29.65858 30.34737,30.22098 0,0.2084 -0.21146,0.379 -0.46992,0.379 -0.74524,0 -0.42314,1.5873 0.39492,1.9461 0.37125,0.1629 0.675,0.3712 0.675,0.4628 0,0.092 -10.7325,10.8817 -23.85,23.9779 -19.32584,19.2946 -23.84999,23.9587 -23.84999,24.588 0,0.6291 4.61552,5.3919 24.29999,25.0752 13.365,13.3643 24.3,24.4973 24.3,24.7402 0,0.5935 -30.89611,31.6295 -31.61685,31.7599 -0.85015,0.1539 -5.28315,-4.3399 -5.28315,-5.3556 0,-0.5102 -0.43361,-1.1951 -1.28635,-2.032 -0.7075,-0.6944 -1.39214,-1.2625 -1.52143,-1.2625 -0.31079,0 -1.09222,-0.7902 -1.09222,-1.1045 0,-0.1361 -0.405,-0.6297 -0.9,-1.0969 -0.495,-0.4672 -0.9,-1.0298 -0.9,-1.2502 0,-0.2204 -0.405,-0.4897 -0.89999,-0.5984 -0.495,-0.1087 -0.90189,-0.3557 -0.90419,-0.5488 -0.005,-0.4124 -4.86072,-5.3003 -5.26829,-5.3031 -0.15264,0 -0.5075,-0.406 -0.78857,-0.9 -0.28108,-0.4939 -0.71983,-0.8981 -0.975,-0.8981 -0.25518,0 -0.46395,-0.2038 -0.46395,-0.4528 0,-0.2491 -0.53488,-0.8228 -1.18862,-1.275 -0.65374,-0.4522 -1.19374,-0.9972 -1.2,-1.2111 -0.006,-0.214 -0.39458,-0.6089 -0.86293,-0.8777 -0.46834,-0.2688 -0.97459,-0.7688 -1.125,-1.1111 -0.1504,-0.3422 -0.5772,-0.7555 -0.94845,-0.9184 -0.37125,-0.1629 -0.67578,-0.4329 -0.67673,-0.6 -0.002,-0.428 -3.11439,-3.4539 -3.55213,-3.4539 -0.19855,0 -0.49428,-0.3505 -0.65718,-0.779 -0.1629,-0.4285 -0.56456,-0.8492 -0.89258,-0.935 -0.32801,-0.086 -0.59638,-0.344 -0.59638,-0.5738 0,-0.2298 -0.53488,-0.7878 -1.18862,-1.24 -0.65374,-0.4522 -1.19374,-0.9972 -1.2,-1.2111 -0.006,-0.214 -0.41553,-0.619 -0.90949,-0.9 -0.56302,-0.3204 -0.89881,-0.754 -0.9,-1.1622 -10e-4,-0.4789 -0.23996,-0.7035 -0.90189,-0.8489 -0.495,-0.1087 -0.9,-0.3774 -0.9,-0.5972 0,-0.2197 -0.405,-0.7402 -0.9,-1.1567 -0.495,-0.4165 -0.9,-0.8457 -0.9,-0.9536 0,-0.3126 -1.31179,-1.3215 -1.73243,-1.3325 -0.21033,-0.01 -0.51571,-0.3605 -0.67861,-0.789 -0.1629,-0.4285 -0.53258,-0.8409 -0.82151,-0.9164 -0.28893,-0.076 -0.75352,-0.535 -1.03243,-1.021 -0.27892,-0.486 -0.71333,-0.8836 -0.96536,-0.8836 -0.25203,0 -0.54294,-0.3375 -0.64647,-0.75 -0.21022,-0.8376 -0.42958,-0.9236 -0.97203,-0.3811 -0.29179,0.2918 -0.50801,0.1997 -1.035,-0.4405 -0.7673,-0.9323 -1.98504,-1.4588 -2.85045,-1.2325 -0.32928,0.086 -11.44399,11.0123 -24.69936,24.2803 -17.10031,17.1168 -24.27723,24.112 -24.70852,24.0831 -0.37468,-0.025 -6.44785,-5.9279 -15.83283,-15.3888 z m 145.87499,-16.3705 c 0,-0.165 -0.135,-0.3 -0.3,-0.3 -0.165,0 -0.3,0.135 -0.3,0.3 0,0.165 0.135,0.3 0.3,0.3 0.165,0 0.3,-0.135 0.3,-0.3 z m -29.1,-128.8714 c 0,-0.0943 -0.19285,-0.36429 -0.42857,-0.6 -0.77374,-0.77376 -2.34038,-0.36828 -1.82143,0.47142 0.19289,0.31209 2.25,0.42963 2.25,0.12858 z m -100.60352,-0.59151 c 0.0977,-0.25461 0.0967,-0.54387 -0.002,-0.64275 -0.21366,-0.21369 -1.09431,0.46425 -1.09431,0.8424 0,0.45273 0.9097,0.28707 1.09648,-0.19965 z m 1407.55347,72.45091 c -15.6148,-0.6291 -29.8962,-3.4612 -43.35,-8.5965 -24.1121,-9.2037 -44.9347,-26.3918 -60.8043,-50.19148 -16.0107,-24.01119 -25.5981,-52.9917 -28.7319,-86.85 -1.0022,-10.8285 -1.1109,-17.29824 -0.9905,-58.95 0.1291,-44.68107 0.1146,-44.23317 1.8966,-58.5 5.045,-40.38807 20.2907,-74.36258 44.6801,-99.56805 24.8004,-25.63023 55.9499,-38.14567 94.8989,-38.12905 31.8641,0.0136 59.0279,6.69834 81.3511,20.01969 31.2787,18.66555 48.3983,46.45798 52.0413,84.48502 0.6657,6.94969 0.9344,17.50097 0.4806,18.87592 l -0.3684,1.11647 -6.0794,0 -6.0794,0 -0.1961,-5.925 c -0.8586,-25.93942 -8.0388,-47.1488 -21.7597,-64.275 -2.7344,-3.41301 -9.1046,-9.87048 -12.6389,-12.81185 -17.1959,-14.31133 -39.3021,-23.04922 -65.85,-26.02844 -10.8474,-1.2173 -28.0125,-1.37427 -36.75,-0.33606 -27.0746,3.21704 -48.6906,13.49988 -67.2135,31.97363 -24.3742,24.30964 -38.9006,57.64052 -43.0172,98.70272 -1.0281,10.25442 -1.1181,15.5457 -0.9934,58.35 0.1321,45.35745 0.1001,44.30913 1.7484,57.3 2.0986,16.54068 6.3061,33.03 11.8652,46.5 10.2722,24.8904 26.9398,46.10628 46.78,59.54558 20.6844,14.011 44.8634,20.1997 73.9925,18.9386 20.5217,-0.8886 36.3037,-3.9192 51.231,-9.8383 25.7506,-10.2107 43.839,-27.01605 53.5549,-49.75617 5.6641,-13.25661 9.1356,-31.2096 9.1491,-47.31471 l 0,-3.525 6.1207,0 6.1206,0 0.3294,0.94476 c 0.6594,1.89159 0.1825,14.562 -0.8749,23.24265 -1.8086,14.84778 -5.3243,26.94273 -11.2384,38.66259 -8.0389,15.93058 -19.3512,28.39598 -35.3971,39.00518 -18.6589,12.3369 -40.8259,19.6897 -66.9103,22.1943 -4.137,0.3972 -19.25,1.1143 -21,0.9964 -0.33,-0.022 -3.03,-0.1383 -6,-0.2579 z m 767.99995,0.021 c -41.0226,-2.5961 -72.3734,-21.1692 -92.6847,-54.90916 -12.6037,-20.93652 -19.667,-46.59519 -22.1324,-80.4 -0.5508,-7.55175 -0.5523,-122.01774 0,-129.6 1.9164,-26.39195 6.1206,-45.82814 13.9425,-64.45692 9.9804,-23.76935 26.2424,-43.09107 46.5763,-55.33952 22.7481,-13.70275 52.9209,-18.94548 83.85,-14.56952 21.5332,3.04662 40.1176,11.13788 55.8,24.29424 4.3092,3.61511 11.6206,11.0837 15.0643,15.38819 16.961,21.20017 27.1093,48.49014 30.8339,82.91558 1.3004,12.01986 1.2897,11.48001 1.4213,71.46795 0.128,58.32348 0.032,65.79582 -0.9931,77.25 -3.8578,43.10997 -17.2772,75.35709 -40.7199,97.85086 -16.2657,15.6072 -36.3351,25.2429 -59.9065,28.7622 -8.5611,1.2782 -22.5438,1.8843 -31.05,1.3461 z m 20.85,-41.8429 c 4.3035,-0.6618 10.0716,-2.1068 13.5,-3.3821 24.5347,-9.12637 39.3867,-32.56519 44.0827,-69.56974 1.6742,-13.19301 1.8073,-19.50663 1.8085,-85.76442 0,-57.95529 -0.1392,-68.48139 -1.0441,-78.37244 -2.0263,-22.14989 -7.3657,-39.73659 -16.0209,-52.76959 -10.4898,-15.79563 -24.432,-24.35251 -44.2762,-27.17407 -4.2134,-0.59908 -17.4646,-0.50238 -21.75,0.15873 -14.1522,2.18325 -24.8147,7.19983 -33.8367,15.91977 -12.6358,12.21281 -20.3979,29.72234 -23.8971,53.90633 -1.8759,12.96546 -1.7703,8.24161 -1.8933,84.73127 -0.1169,72.70806 -0.086,74.98482 1.1553,86.09787 3.7506,33.5658 15.8364,56.64777 35.8185,68.40792 6.9451,4.08737 15.7731,6.98377 24.1533,7.92457 1.5675,0.1759 3.255,0.3757 3.75,0.4439 2.1989,0.303 15.4587,-0.098 18.45,-0.558 z m -1895.0999,-158.41638 0,-194.85 56.475,0.002 c 56.20277,10e-4 61.01108,0.0739 71.02499,1.07143 33.75498,3.36242 60.57255,14.20551 77.85066,31.47717 13.46577,13.46076 21.10341,30.45946 23.7483,52.85545 0.7518,6.36623 0.75285,21.92027 0.003,27.99455 -2.04258,16.52071 -6.92367,30.0537 -15.16347,42.04123 -11.36316,16.53144 -28.1286,27.41955 -49.08732,31.87914 -3.62268,0.77082 -3.65322,0.73139 1.2,1.54871 21.29883,3.58693 41.29668,14.49384 56.05503,30.57271 18.10365,19.72346 26.07033,40.8008 25.28955,66.90822 -0.2991,10.00196 -1.302,17.93463 -3.3417,26.43239 -6.66654,27.7737 -23.95857,49.15278 -50.70288,62.68688 -16.4517,8.3255 -34.47747,12.7529 -56.7,13.9266 -3.4641,0.183 -31.3833,0.3016 -71.17499,0.3026 l -65.47617,0 0,-194.84998 z m 143.34695,179.76268 c 19.35918,-2.1867 33.46668,-6.2094 45.95304,-13.1032 24.13518,-13.3252 38.59593,-34.22799 42.61272,-61.59615 1.25553,-8.55438 1.515,-21.00021 0.58302,-27.96333 -1.97805,-14.77872 -7.65054,-28.06014 -16.97721,-39.75 -2.62488,-3.28998 -10.34205,-11.00532 -13.61853,-13.61532 -12.91878,-10.2909 -29.45613,-17.05215 -48.48513,-19.82301 -10.36077,-1.50864 -7.59693,-1.4511 -75.48986,-1.57203 l -63.525,-0.11316 0,89.1231 0,89.1231 62.325,-0.1123 c 54.95273,-0.099 62.83328,-0.1697 66.62195,-0.5977 z m -21.99696,-192.22027 c 32.85828,-1.94442 56.64732,-10.23495 72.27072,-25.18653 11.56884,-11.07138 18.18471,-25.25397 20.78439,-44.55588 0.75537,-5.6082 0.75741,-22.10104 0.004,-27.45 -1.82661,-12.95845 -5.58552,-23.55158 -11.55042,-32.55052 -14.30376,-21.57934 -40.39743,-34.03656 -78.51174,-37.48177 -9.57738,-0.86572 -21.59607,-1.06013 -65.77139,-1.06392 l -44.17515,-0.004 0,84.3 0,84.3 50.925,-0.003 c 30.53417,-0.003 52.96709,-0.12375 56.02499,-0.30468 z m 164.85387,207.08257 c 0.003,-0.1237 32.71587,-87.77248 72.6972,-194.77498 l 72.6933,-194.55 8.87961,-0.0794 8.87961,-0.0794 0.59424,1.57943 c 0.32685,0.86869 33.06402,88.31693 72.74924,194.32943 39.68526,106.0125 72.24858,192.98862 72.363,193.28012 0.19611,0.4998 -0.24324,0.5254 -7.69464,0.45 l -7.90266,-0.08 -21.75639,-58.12145 -21.75639,-58.12143 -95.4218,-0.004 -95.42184,-0.004 -20.80008,55.875 c -11.44005,30.73128 -21.19578,56.92128 -21.67944,58.20008 l -0.87936,2.325 -7.77372,0 c -4.27557,0 -7.77201,-0.1013 -7.76988,-0.225 z M 101.60887,526.43721 c -0.0764,-0.28875 -18.27306,-49.26 -40.43702,-108.825 -22.16397,-59.565 -42.14994,-113.7 -44.41326,-120.3 -4.09038,-11.92789 -4.12011,-12 -4.94748,-12 -0.82899,0 -0.84849,0.0483 -4.79019,11.85 -2.69979,8.08341 -16.81065,46.27378 -44.39388,120.15 -22.23984,59.565 -40.49976,108.60375 -40.57764,108.975 l -0.14157,0.675 89.91999,0 c 85.49096,0 89.91311,-0.0258 89.78105,-0.525 z m 127.56891,-63.53367 0,-194.85867 68.32497,0.0988 c 74.1937,0.10727 70.0411,0.0192 82.125,1.74093 20.2264,2.88181 38.1084,9.33267 52.35,18.88507 7.578,5.08282 17.3263,14.12926 22.6214,20.99255 14.3984,18.66254 21.244,39.12676 21.9777,65.7 0.9712,35.17701 -10.2072,64.20498 -32.6752,84.8502 -17.748,16.30821 -41.495,25.9389 -71.4739,28.98645 -9.4452,0.96018 -16.267,1.06026 -72.375,1.06182 l -56.475,0.002 0,83.7 0,83.7 -7.19997,0 -7.2,0 0,-194.85867 z m 133.34997,12.75777 c 25.344,-1.57749 45.1816,-7.53072 60.75,-18.23097 11.9558,-8.21727 22.6441,-20.68335 29.2525,-34.11813 4.7964,-9.75081 7.4866,-18.85065 9.0465,-30.6 0.7479,-5.63376 0.7503,-20.85375 0,-26.7 -2.7276,-21.37081 -10.1982,-37.80404 -24.1837,-53.19792 -15.1541,-16.68011 -37.6069,-26.56 -67.2615,-29.59714 -8.6699,-0.88794 -19.7213,-1.04721 -72.9329,-1.05106 l -53.6251,-0.004 0,96.9 0,96.9 57.075,0 c 34.4667,0 58.9764,-0.11943 61.875,-0.29985 z m 660.44995,163.86868 0,-18.2321 63.9418,-70.94285 c 66.0834,-73.31871 71.5226,-79.4007 78.8873,-88.20933 19.8315,-23.71974 30.71,-39.98886 36.5427,-54.65082 6.3965,-16.07937 8.3232,-32.53866 5.7126,-48.80354 -1.8105,-11.28007 -5.7848,-21.17044 -12.0705,-30.03804 -9.0176,-12.7216 -20.8652,-20.65259 -35.1639,-23.5392 -5.82,-1.17494 -9.729,-1.45578 -17.5377,-1.25999 -16.3998,0.41121 -28.582,3.07572 -39.8118,8.7077 -10.1907,5.11084 -18.054,12.62848 -24.3086,23.24027 -6.4549,10.95141 -10.1557,25.2523 -10.7873,41.68512 l -0.199,5.175 -25.2971,0 -25.2971,0 -0.196,-0.78096 c -0.3963,-1.57896 0.1296,-15.75137 0.7566,-20.39029 2.9041,-21.4861 10.8611,-39.73593 24.4737,-56.1319 3.466,-4.17474 10.5398,-11.28152 14.5007,-14.56835 17.7354,-14.71705 39.6073,-23.66442 65.7536,-26.89854 25.0589,-3.09961 49.3159,-1.26622 68.25,5.15847 5.8935,1.99978 8.5036,3.0904 14.25,5.95425 19.4889,9.71279 36.1856,26.57281 45.6445,46.09105 5.3047,10.94593 8.3694,21.76247 10.05,35.46926 0.6692,5.45865 0.7687,21.22842 0.1647,26.09701 -1.7051,13.74228 -5.0661,25.45623 -11.0431,38.48835 -7.3716,16.0728 -22.4447,38.45604 -40.4144,60.01455 -9.363,11.23287 -7.3474,9.01389 -71.9817,79.24485 -42.071,45.71394 -50.2106,54.69573 -50.0241,55.2 0.2224,0.60103 0.4142,0.60243 94.0134,0.67773 l 93.7907,0.076 0,20.6995 0,20.6995 -126.3,0 -126.3,0 0,-18.2322 z m 715.5,-151.13581 0,-169.36804 -6.525,0.17235 c -3.5888,0.0948 -18.135,0.30388 -32.325,0.46464 -14.19,0.16075 -29.2088,0.37509 -33.375,0.47631 l -7.575,0.18403 0,-19.08063 c 0,-10.49435 0.1081,-19.08063 0.2403,-19.08063 0.4014,0 130.0259,-14.06968 131.2347,-14.24444 l 1.125,-0.16265 0,195.00355 0,195.00352 -26.4,0 -26.4,0 0,-169.36801 z m 275.4,168.75231 c 0,-1.5611 4.3011,-42.60351 5.1072,-48.73428 7.2179,-54.89583 20.5959,-105.76821 39.4457,-150 20.3655,-47.78841 50.1611,-96.91066 86.2294,-142.16133 2.9797,-3.73831 5.4177,-6.86257 5.4177,-6.9428 0,-0.0802 -47.655,-0.14587 -105.9,-0.14587 l -105.9,0 0,-20.7 0,-20.7 131.85,0 131.85,0 0,20.66646 0,20.66646 -4.6753,5.62354 c -36.3046,43.66806 -64.6839,86.07524 -81.5055,121.79354 -16.6528,35.35968 -30.1591,82.71405 -39.1891,137.4 -3.2443,19.64781 -5.1643,34.55382 -7.8251,60.74998 -1.148,11.3025 -2.1671,21.1238 -2.2645,21.825 l -0.1773,1.275 -26.2316,0 -26.2316,0 0,-0.6157 z M -746.34828,537.08613 c -8.45565,-8.45685 -15.37391,-15.54435 -15.37391,-15.75 0,-0.20565 0.2025,-0.37392 0.45,-0.37392 0.2475,0 0.45,0.135 0.45,0.3 0,0.165 0.2025,0.3 0.45,0.3 0.30004,0 0.45,-0.30003 0.45,-0.90039 0,-0.77709 0.96537,-1.85562 7.04862,-7.875 3.87674,-3.83604 7.2591,-7.17711 7.51637,-7.42461 0.25727,-0.2475 1.20433,-1.1925 2.10458,-2.1 0.90025,-0.9075 1.84185,-1.8525 2.09245,-2.1 2.02775,-2.00271 10.04042,-10.36575 10.6239,-11.08848 0.40476,-0.50133 0.85427,-0.91152 0.99891,-0.91152 0.35494,0 11.01517,-10.77285 11.01517,-11.13156 0,-0.15582 0.3375,-0.4116 0.75,-0.56844 0.4125,-0.15684 0.75,-0.42348 0.75,-0.59256 0,-0.16911 0.18597,-0.30744 0.41327,-0.30744 0.22729,0 0.58132,-0.2025 0.78673,-0.45 0.30587,-0.36855 0.28537,-0.45 -0.11327,-0.45 -0.91026,0 -0.49087,-1.06947 0.86327,-2.2014 1.15808,-0.96804 1.35,-1.28793 1.35,-2.25015 0,-1.08633 -0.75187,-1.87302 -23.85,-24.95412 -13.1175,-13.10781 -23.85,-23.93634 -23.85,-24.06336 0,-0.12705 0.3375,-0.23097 0.75,-0.23097 0.55,0 0.75,-0.15999 0.75,-0.6 0,-0.33 -0.135,-0.6 -0.3,-0.6 -0.165,0 -0.3,0.135 -0.3,0.3 0,0.165 -0.27,0.3 -0.6,0.3 -0.35721,0 -0.6,-0.20001 -0.6,-0.49425 0,-0.46896 29.9015,-30.69155 30.375,-30.70118 0.12375,-0.002 0.225,0.33293 0.225,0.74543 0,0.6 0.15,0.75 0.75,0.75 0.6,0 0.75,-0.15 0.75,-0.75 0,-0.4125 0.10319,-0.75 0.22932,-0.75 0.12612,0 10.95623,10.7325 24.0669,23.85 27.34271,27.35694 24.66832,25.20654 27.52756,22.13424 1.37702,-1.4796 1.67259,-1.66839 2.14767,-1.37169 0.47493,0.29661 0.77002,0.10914 2.13968,-1.35924 0.87382,-0.93684 1.54809,-1.76592 1.49838,-1.84242 -0.0497,-0.0765 0.1583,-0.279 0.46226,-0.45 0.77778,-0.43755 11.52823,-11.23491 11.52823,-11.57856 0,-0.15528 0.14319,-0.28233 0.31822,-0.28233 0.38381,0 8.08178,-7.67721 8.08178,-8.06001 0,-0.14781 0.50061,-0.65061 1.11247,-1.11729 0.61186,-0.46671 5.07049,-4.80273 9.90807,-9.63561 7.9136,-7.90593 8.89328,-8.78709 9.76966,-8.78709 0.86038,0 1.56271,0.58929 6.01776,5.04909 2.77404,2.77701 5.13333,5.17446 5.24287,5.3277 0.10954,0.15321 0.67369,0.59574 1.25366,0.98337 0.57998,0.38766 1.52498,1.36218 2.1,2.16558 0.57503,0.80343 1.13101,1.46382 1.23552,1.46751 0.1045,0.004 0.26916,-0.29595 0.36591,-0.66591 0.16568,-0.63357 0.26364,-0.58626 1.68499,0.81372 0.83,0.8175 1.50908,1.57695 1.50908,1.68768 0,0.1107 -0.27178,0.27237 -0.60397,0.35922 -0.56607,0.14805 -0.54699,0.21492 0.30419,1.06611 0.49949,0.49947 1.17628,0.99324 1.50397,1.09725 0.3277,0.10401 0.59581,0.32187 0.59581,0.48411 0,0.16224 1.83175,2.13525 4.07055,4.38441 2.2388,2.24919 4.27082,4.47672 4.5156,4.95006 0.33426,0.64638 0.59053,0.81447 1.02945,0.67515 0.32142,-0.10203 0.5844,-0.0715 0.5844,0.0679 0,0.13932 -10.8,11.04771 -24,24.24084 -22.7969,22.78506 -23.99999,24.04095 -23.99999,25.05354 0,1.01262 1.2021,2.26725 23.99999,25.04832 13.2,13.19028 24,24.08628 24,24.21336 0,0.12705 -0.3359,0.23103 -0.74645,0.23103 -0.63888,0 -0.77411,0.17292 -0.93834,1.2 -0.10554,0.66 -0.34475,1.2 -0.53159,1.2 -0.46389,0 -11.28362,10.86225 -11.28362,11.32797 0,0.2046 -0.1697,0.37203 -0.37712,0.37203 -0.20742,0 -3.95271,3.5775 -8.32288,7.95 -7.11744,7.12125 -8.04683,7.95 -8.91537,7.95 -0.91736,0 -0.95992,0.0485 -0.78963,0.9 0.099,0.495 0.0581,0.9 -0.0908,0.9 -0.30193,0 -46.03695,-45.68277 -46.73706,-46.68366 -0.50928,-0.72807 -1.98614,-1.41711 -2.71765,-1.26792 -0.2739,0.0559 -11.32083,10.93641 -24.54873,24.17898 -19.10839,19.12956 -24.20509,24.07689 -24.80183,24.075 -0.59038,-0.003 -4.04076,-3.29253 -16.125,-15.37848 z m 16.42609,14.35062 c 0,-0.069 0.0819,-0.339 0.18209,-0.6 0.13736,-0.35793 -0.0101,-0.47454 -0.6,-0.47454 -0.85002,0 -0.86939,0.0234 -0.6,0.72546 0.15664,0.40818 1.01791,0.70356 1.01791,0.34908 z m 42.75,-42.77454 c 0.10197,-0.165 0.0424,-0.3 -0.1323,-0.3 -0.17474,0 -0.3177,0.135 -0.3177,0.3 0,0.165 0.0595,0.3 0.13229,0.3 0.0728,0 0.21573,-0.135 0.31771,-0.3 z m -59.025,-170.82726 c -8.37375,-8.43412 -15.225,-15.43331 -15.225,-15.55375 0,-0.12045 0.3375,-0.21899 0.75,-0.21899 0.67105,0 0.75,-0.12245 0.75,-1.16327 0,-0.66803 0.19158,-1.32226 0.45,-1.53673 0.2475,-0.20541 0.45,-0.27224 0.45,-0.14852 0,0.12371 0.6412,-0.36601 1.42488,-1.08827 0.78369,-0.72227 1.38556,-1.43136 1.33749,-1.57576 -0.11614,-0.34887 0.83846,-1.38745 1.27527,-1.38745 0.4383,0 2.22268,-1.83047 2.68128,-2.75054 0.19175,-0.3847 0.73259,-0.88356 1.20186,-1.10857 0.46928,-0.225 0.92253,-0.67411 1.00723,-0.99801 0.0847,-0.3239 0.48611,-0.71518 0.89203,-0.86951 0.40591,-0.15433 0.81091,-0.55933 0.9,-0.9 0.0891,-0.34067 0.48344,-0.74163 0.87635,-0.89101 0.3929,-0.14938 0.84453,-0.61394 1.00361,-1.03236 0.15908,-0.41842 0.61071,-0.88298 1.00361,-1.03236 0.3929,-0.14938 0.78367,-0.53662 0.86838,-0.86052 0.0847,-0.3239 0.5419,-0.7736 1.016,-0.99935 0.47411,-0.22573 0.98564,-0.6912 1.13674,-1.03437 0.15109,-0.34317 0.54795,-0.74757 0.88189,-0.89867 0.33395,-0.1511 0.81782,-0.6526 1.07528,-1.11444 0.25745,-0.46184 0.8056,-1.00583 1.2181,-1.20886 0.4125,-0.20303 0.75,-0.56584 0.75,-0.80625 0,-0.2404 0.37876,-0.61863 0.84169,-0.84051 0.46293,-0.22187 0.95882,-0.71149 1.10198,-1.08803 0.14316,-0.37654 0.5253,-0.75393 0.84921,-0.83863 0.3239,-0.0847 0.77301,-0.5269 0.99801,-0.98267 0.22501,-0.45577 0.50521,-0.77617 0.62266,-0.71201 0.28075,0.15338 3.24744,-2.77284 3.08222,-3.04017 -0.07,-0.11327 0.20606,-0.5191 0.61347,-0.90185 0.40742,-0.38274 0.74076,-0.57747 0.74076,-0.43272 0,0.43867 2.43695,-2.0587 2.72373,-2.79128 0.147,-0.37548 0.50554,-0.76587 0.79676,-0.86753 0.75165,-0.2624 3.07951,-2.54672 3.07951,-3.02191 0,-0.21846 0.26241,-0.49428 0.58314,-0.61292 0.76375,-0.28253 3.61686,-3.02208 3.61686,-3.4729 0,-0.19237 0.30375,-0.48304 0.675,-0.64591 0.37125,-0.16288 0.80826,-0.59989 0.97114,-0.97114 0.16287,-0.37125 0.45009,-0.675 0.63826,-0.675 0.18817,0 0.51019,-0.2025 0.7156,-0.45 0.30587,-0.36855 0.28537,-0.45 -0.11327,-0.45 -0.81727,0 -0.55029,-0.66422 0.83994,-2.08969 1.27124,-1.30348 1.48759,-1.71901 1.40887,-2.70596 -0.0196,-0.24511 -10.91661,-11.3298 -24.21569,-24.63266 -15.72547,-15.72993 -24.14339,-24.35665 -24.075,-24.67218 0.16268,-0.75063 31.49585,-32.00582 32.03222,-31.95251 0.26011,0.0259 11.20543,10.85559 24.32293,24.06609 13.1175,13.2105 24.11068,24.12904 24.42929,24.26342 1.08989,0.45967 2.19982,-0.32263 6.02711,-4.24802 2.10668,-2.16067 3.93641,-3.92849 4.06609,-3.92849 0.12968,0 0.29553,0.30375 0.36856,0.675 0.12859,0.65374 0.13928,0.65573 0.33933,0.0632 0.1136,-0.3365 0.50199,-0.7415 0.86308,-0.9 0.3611,-0.15851 0.67469,-0.42319 0.69689,-0.58819 0.14903,-1.1078 0.53528,-1.66771 1.09506,-1.58738 0.40699,0.0584 0.76745,-0.19113 1.08678,-0.75233 0.26279,-0.46184 0.81531,-1.00753 1.22781,-1.21264 0.51193,-0.25455 0.72135,-0.57637 0.65976,-1.01389 -0.0712,-0.50583 0.0865,-0.66129 0.74779,-0.73736 0.56511,-0.065 0.96619,-0.36507 1.2316,-0.9214 0.21647,-0.45375 0.56519,-0.825 0.77492,-0.825 0.50299,0 1.74902,-1.33691 1.48867,-1.59726 -0.11151,-0.1115 -10e-4,-0.20274 0.24496,-0.20274 0.48501,0 1.7523,-1.21008 1.7523,-1.6732 0,-0.15649 0.30135,-0.41779 0.66967,-0.58066 0.36832,-0.16288 0.83351,-0.62796 1.03376,-1.03351 0.20025,-0.40556 0.64335,-0.84068 0.98469,-0.96695 0.34133,-0.12626 0.74613,-0.55973 0.89955,-0.96326 0.15342,-0.40352 0.65771,-0.914 1.12064,-1.13438 0.46292,-0.22039 0.97137,-0.69554 1.12987,-1.0559 0.15851,-0.36037 0.5294,-0.71828 0.8242,-0.79538 0.29481,-0.0771 0.64331,-0.43021 0.77444,-0.78471 0.13114,-0.35449 0.57025,-0.80837 0.97581,-1.00862 0.40555,-0.20024 0.86705,-0.65713 1.02555,-1.01529 0.15851,-0.35816 0.51441,-0.71037 0.7909,-0.78267 0.27649,-0.0723 0.68803,-0.51813 0.91454,-0.99073 0.22651,-0.4726 0.78937,-1.04022 1.2508,-1.26138 0.46142,-0.22115 0.95609,-0.71018 1.09925,-1.08672 0.14316,-0.37654 0.53902,-0.75751 0.8797,-0.8466 0.34067,-0.0891 0.74852,-0.50158 0.90632,-0.91664 0.15781,-0.41507 0.66569,-0.93498 1.12862,-1.15536 0.46292,-0.22039 0.97137,-0.69554 1.12987,-1.0559 0.15851,-0.36037 0.5294,-0.71828 0.8242,-0.79538 0.29481,-0.0771 0.64331,-0.43021 0.77444,-0.78471 0.13114,-0.35449 0.57025,-0.80837 0.9758,-1.00862 0.40556,-0.20024 0.87064,-0.66544 1.03351,-1.03375 0.16288,-0.36833 0.4431,-0.66968 0.62271,-0.66968 0.43001,0 1.82431,-1.49172 1.63115,-1.74513 -0.0825,-0.10823 0.23791,-0.3827 0.71201,-0.60993 0.4741,-0.22724 0.92533,-0.65532 1.00273,-0.95131 0.16047,-0.61361 0.93762,-0.88363 2.56026,-0.88954 0.61875,-0.002 1.125,-0.11817 1.125,-0.25759 0,-0.46861 -1.09125,-1.2465 -1.74862,-1.2465 -0.35825,0 -0.64708,-0.10125 -0.64184,-0.225 0.0205,-0.48441 0.8327,-1.275 1.30978,-1.275 0.42318,0 31.98068,31.2767 31.98068,31.69612 0,0.0782 -0.43875,0.0999 -0.975,0.0481 -0.80639,-0.0779 -0.975,0.01 -0.975,0.50581 0,0.45003 0.16872,0.57654 0.675,0.50614 0.37125,-0.0516 0.675,0.0374 0.675,0.19783 0,0.16043 -10.8,11.10184 -24,24.31424 -13.2,13.2124 -23.99999,24.1685 -23.99999,24.34689 0,0.17839 0.12289,0.55172 0.2731,0.82962 0.15022,0.2779 11.08522,11.30267 24.3,24.49947 16.01079,15.989 24.02689,24.19668 24.02689,24.60109 0,0.64825 -30.45505,31.35472 -31.09799,31.35472 -0.19813,0 -0.27882,-0.25625 -0.18893,-0.6 0.12041,-0.46044 0.009,-0.6 -0.47809,-0.6 -0.43498,0 -0.63499,0.18898 -0.63499,0.6 0,0.33 -0.10876,0.6 -0.24169,0.6 -0.13293,0 -10.96668,-10.73323 -24.075,-23.85163 -21.9564,-21.97327 -23.91117,-23.8515 -24.82207,-23.85 -0.90994,0.002 -2.90937,1.92673 -25.08247,24.15163 -19.34426,19.38945 -24.23516,24.14088 -24.81124,24.10375 -0.52023,-0.0335 -4.9038,-4.26271 -15.94252,-15.38101 z m 16.215,13.86726 c 0.55923,-0.55924 0.42888,-0.84 -0.39,-0.84 -0.70591,0 -1.00543,0.54458 -0.55,1 0.28919,0.28919 0.53216,0.24783 0.94,-0.16 z m 5.46,-4.74 c 0,-0.165 -0.135,-0.3 -0.3,-0.3 -0.165,0 -0.3,0.135 -0.3,0.3 0,0.165 0.135,0.3 0.3,0.3 0.165,0 0.3,-0.135 0.3,-0.3 z m 124.43124,-25.74375 c 0.0653,-0.19594 -0.095,-0.35625 -0.35625,-0.35625 -0.26125,0 -0.475,0.21375 -0.475,0.475 0,0.52978 0.64583,0.43752 0.83125,-0.11875 z m -159.83124,-99.35625 c 0,-0.165 -0.2025,-0.3 -0.45,-0.3 -0.2475,0 -0.45,0.135 -0.45,0.3 0,0.165 0.2025,0.3 0.45,0.3 0.2475,0 0.45,-0.135 0.45,-0.3 z m 30.3,-30 c 0,-0.165 -0.27,-0.3 -0.6,-0.3 -0.33,0 -0.6,0.135 -0.6,0.3 0,0.165 0.27,0.3 0.6,0.3 0.33,0 0.6,-0.135 0.6,-0.3 z"
       style="fill:#4053a3" />
  </g>
</svg>
