<svg id="Layer_1" data-name="Layer 1" xmlns="http://www.w3.org/2000/svg" xmlns:xlink="http://www.w3.org/1999/xlink" viewBox="0 0 2876.86 637.88"><defs><style>.cls-1{fill:none;}.cls-2{clip-path:url(#clip-path);}</style><clipPath id="clip-path" transform="translate(-69.47 -14.72)"><polygon class="cls-1" points="1301.29 -511 3147.33 -387.34 3147.33 673 1301.29 673 1301.29 -511"/></clipPath></defs><g class="cls-2"><path d="M1411.91,242.89c-14.8,7.58-24.91,20.94-22.74,30,.72,1.81,2.52,14.44,4.33,27.8,1.8,13.71,5.41,29.24,8.66,35.37,3.25,5.78,4,10.83,2.17,10.83-5.06,0-11.19,23.83-11.19,45.12l-.37,18-6.85-14.44c-8-15.88-22.75-30.68-30.69-30.68-7.58,0-12.63,11.55-13,29.6-.36,8.66-1.08,12.63-2.17,9-.72-3.24-3.25-6.13-5-6.13-2.17,0-3.25,2.89-2.53,6.13a12.22,12.22,0,0,1-2.88,10.11c-7.23,5.78-1.09,35.38,7.94,39.35,5,2.16,10.46,12.63,17.68,32.48,17.33,49.82,26,59.2,63.17,68.95,15.89,4,16.25,4.33,17.33,19.85,1.44,19.86-7.22,42.6-20.94,56C1408.66,636,1404,642.49,1404,645c0,6.5,14.8,10.47,18,5.06,3.61-5.78,59.56-9.39,62.81-4,4,6.49,20.22,5,20.22-1.81,0-3.25,2.52-7.94,5.41-10.1,3.25-2.17,8.3-18.78,12.27-38.27l7-34.29,1.67,39v39h80.1c58.84-.77,81.22-2.22,81.58-5.1,1.09-17-1.08-140.78-2.52-152.7-1.45-10.46-.36-16.24,3.61-20.21s4.69-9.39,3.25-18.77l-2.17-13.34h-52.34c-42.6.35-51.62-.38-46.93-4.35,2.89-2.16,7.58-14.44,9.75-26.71,2.53-12.63,7.58-31.77,11.19-43,9-25.63,9.38-39.71,1.08-42.6-8.66-3.61-10.83.36-17.69,35.74-3.24,17.68-7.94,40.43-10.46,50.53l-4,18.05L1565,418.32c-15.52.73-22.74-.36-27.44-4.69-3.6-3.25-8.66-5.41-11.55-5.05-2.52.72-19.49-.36-37.54-1.81-36.1-2.89-35.73-2.52-62.81-37.9l-11.91-15.52,14.8,7.58c13,6.5,17,7.22,32.85,3.61,14.44-2.89,20.94-6.86,31-18.41,7.22-8.66,13.36-20.58,14.44-27.8,1.45-7.21,3.61-15.88,5.78-19.49,2.52-4.69,1.08-10.83-4.69-23.1-9.39-18.77-20.22-28.16-41.16-35.38-20.21-7.22-36.45-6.49-54.86,2.53M1452.7,284c2.88,2.17,5.41,5.78,5.41,8.3,0,4,5.42,5.78,12.63,4,1.81-.37,5.06-1.09,7.22-1.45a26.29,26.29,0,0,0,7.58-3.25c2.53-1.44,5.06.72,6.14,5.06,1.45,4.69,3.61,6.49,6.14,5.05,6.86-4.33.72,19.85-9,34.65-6.13,9.75-12.63,14.08-24.9,17.69-19.86,5.42-30.69,3.25-43-9.38-12.27-12.28-20.57-36.82-13.72-40.79,2.53-1.81,4.33-6.14,4-9.75-.36-4-.72-8.66-.36-10.47.36-5.05,34.66-4.69,41.88.36m160.63,41.15c2.89-4.33,3.61-4.33,3.25,1.81a41.9,41.9,0,0,1-3.25,14.44c-2.89,6.49-3.25,6.49-3.25-1.81,0-5.05,1.44-11.55,3.25-14.44m-3.61,30.33c0,2.88-1.44,6.13-3.25,7.21-1.8,1.45-2.53-1.08-1.44-5.05,2.16-8.3,4.69-9.39,4.69-2.16m-197.09,13.71c.72-.36,7.22,6.86,14.44,16.25l13.71,17.32-9.74,1.08c-12.27,1.45-13,.73-16.25-18-1.8-8.67-2.52-15.89-2.16-16.61m-41.15,18c10.83,18.05,15.52,35,15.88,58.84.36,24.54-6.86,30.68-17.33,14.44-8.3-12.64-19.49-59.2-17.32-73.28,2.16-14.8,9.74-14.8,18.77,0m37.9,14.44c2.89,9.74,5.78,11.91,14.44,13,39.34,3.25,48.73,5.06,48.73,10.11,0,2.89-1.81,5.06-4,5.06s-3.25,5.77-2.53,13.35c1.08,13.72,1.08,13.72,17.33,13.72,43.32.36,43.32.72,43.32,14.44,0,14.44-1.09,14.8-34.3,8.66-11.91-2.17-32.12-5.05-44.76-6.14-22.38-2.52-23.46-2.88-30.32-16.24-6.14-12.27-16.6-50.18-17-63.17,0-8.66,5.77-4,9,7.22m-62.09,19.85c1.45,1.08,2.53,5.78,2.17,9.75,0,6.86-.36,6.86-3.61-1.08-3.61-8.67-2.89-13,1.44-8.67m170.38,5.78,30.32-.72c21.66-.37,29.6.72,26.71,3.61-2.52,2.52-12.27,2.52-30.32.36Zm-14.44-.36c5.78,0,7.94.72,4.33,1.8a27.36,27.36,0,0,1-10.83,0c-2.16-1.08.37-1.8,6.5-1.8m78,11.91c57.76,0,105.77.72,106.49,1.44s1.44,4,1.44,6.86c0,4.69-12.63,5.05-94.93,3.25-52-1.44-100-2.53-106.49-2.53-6.86,0-11.55-1.8-11.55-4.69,0-3.25,23.46-4.33,105-4.33m-184.46,24.18,5.78-15.52,6.14,12.64c7.94,17.32,17,22.38,55.23,30.68,62.81,13.72,63.89,14.08,61,24.91-1.44,5.41-10.47,29.6-20.21,54.14-19.14,48.37-19.86,51.26-13,51.26,2.89,0,6.86-6.5,9.39-14.08a236.21,236.21,0,0,1,11.19-30l7.58-15.52-2.53,14.44c-2.53,18-11.91,56.67-14.08,58.84-.72,1.08-5.77-1.09-11.19-4.34-11.19-7.57-22.38-31-25.27-54.14-2.16-15.16-1.8-16.6,5.42-16.6,10.11,0,9.74-7.22-.72-7.59-10.83-.36-2.53-3.24,22.74-8.3,18.77-3.61,19.85-4.69,20.93-15.52,1.09-10.11-.72-13-10.82-18.77-31.41-19.49-108.3-15.16-113.71,6.14-1.08,5.05-.36,11.91,1.8,15.52,3.25,5.05,3.25,6.13-.72,4.69-6.86-2.53-19.13-26.35-29.24-55.59l-8.66-25.27,12.27,13c7.22,7.58,14.8,12.27,18.77,11.55,3.61-.72,8.67-7.58,11.91-16.61m139-3.53h72.56l72.55.36,1.81,83.74c1.08,46.21,1.8,84.11,1.44,84.47,0,0-32.13,1.08-71.11,2.17l-70.75,1.44L1539,545.82Zm-36.1,58.4c17.33,11.55,11.91,15.89-24.18,19.86-27.08,2.88-62.45-.73-70.39-7.58-8.31-6.86-5.06-15.53,7.22-20.22,22.74-8.3,69.3-4,87.35,7.94m-48.73,41.49c6.14,0,7.22,2.53,7.22,14.44,0,7.94,2.89,22,6.5,31.4l6.49,17.33-18.77.36h-18.4l4.69-11.91c2.89-6.5,5.05-20.58,5.05-31.77,0-17.32.72-19.85,7.22-19.85m5.78,73.3c1.08,1.45-4,2.89-10.83,2.89-7.22,0-13-.72-13-1.44,0-2.89,22-4.34,23.83-1.45" transform="translate(-69.47 -14.72)"/><path d="M1517,366.34c-1.08.73,0,4.7,2.17,8.31,4.33,7.22,5.05,5.05,1.8-4.34-1.44-3.24-3.25-5.05-4-4" transform="translate(-69.47 -14.72)"/><path d="M1565.68,368.51c-.72,0-5.41,4-10.11,9s-7.58,9-6.49,9c.72,0,5.41-4,10.1-9s7.58-9,6.5-9" transform="translate(-69.47 -14.72)"/><path d="M1558.1,392.33c-3.61,1.09-5.41,3.25-4.33,4.34s4,0,6.5-2.53c3.24-3.61,2.88-4-2.17-1.81" transform="translate(-69.47 -14.72)"/></g><path d="M2179,184.45c-7.72,2.76-24.28,15.18-33.94,25.11-19.86,20.7-13.52,68.16,12.42,92.16,12.14,11.31,13.24,14.07,13.24,33.11,0,30.07,3.32,56.29,6.63,55.18,1.65-.55,5.79-8.27,9.38-17.38,3.31-8.83,10.48-25.11,15.73-35.59l9.38-19.32v53c.27,45.25-.56,54.63-4.69,64.84-8.28,19.31-18.77,61-29.53,115.33-5.52,28.15-11,56-12.41,62.09-2.21,9.93,0,19,3.58,13.24.83-1.1,7.18-31.46,14.35-67.05,11-55.18,28.14-123.06,30.63-120.58,1.1,1.11,8.55,49.39,13.24,86.09,5.24,40.84,21,106.23,25.66,106.23,4.14,0,2.76-9.11-6.34-41.39-3.59-13-11.59-58.49-17.66-101.54-9.94-69.8-11-81.39-9.11-107.6l1.93-29.53,5.8,47.46c5.52,44.42,7.45,53.53,11,49.94,1.38-1.38-8.27-89.12-12.41-112.3-1.66-9.38-1.66-16.28,0-19.31,1.65-2.48,2.76-3,2.76-1.11,0,6.9,5.51,3.59,5.51-3.31,0-3.86,1.39-6.89,2.76-6.89,1.66,0,2.76-1.66,2.76-3.87,0-6.07,5.25-8.27,9.94-4.14,5.79,4.7,8.27.56,3-5.24-2.76-2.76-3.86-6.07-2.76-7.17,4.14-4.14,4.69-9.66,2.76-41.94-1.1-19.59-2.21-24-9.93-35.32-5-6.9-12.69-14.9-17.66-17.38-10.21-5.52-37.8-8.83-46.08-5.8m-2.56,40.84c0,1.38-.56,2.76-1.11,2.76-.83,0-2.2-1.38-3-2.76-.83-1.66-.28-2.76,1.1-2.76a2.84,2.84,0,0,1,3,2.76m-20.15,19.87c8.83,5.51,13.8,6.07,37.81,5.79,14.89-.28,28.41-1.66,30.07-3.31a11.19,11.19,0,0,1,6.9-3c3,0,3.58,3.59,2.76,16.56-1.11,13.52-2.76,18.21-9.38,25.11-4.42,4.69-11.87,10.48-16.84,12.41-10.76,4.69-31.73,5-35.86.83-1.66-1.65-6.08-4.41-9.66-6.34-8.56-4.14-21.52-30.35-21.52-43.6,0-12.14,1.65-12.69,15.72-4.41m42.35,69.28c2.76,2.76,4.14,2.76,6.07-.55,6.07-9.66,1.93,1.65-6.9,18.76-5.24,10.21-11.31,23.45-13.52,29.52-3.86,10.76-4.14,10.49-4.14-20.14l-.27-30.9h7.72c4.14,0,9.38,1.65,11,3.31" transform="translate(-69.47 -14.72)"/><path d="M2028.79,217.29c-13,6.34-26.21,39.45-26.21,65.94,0,16.56,10.21,37.53,24.55,50.22,10.76,9.66,11.59,11.59,14.63,32,3,20.69,2.76,22.07-2.76,30.35-5,6.9-9.66,9.1-25.39,12.69-21.52,5-37.52,5.79-40,1.65-.83-1.37.27-9.65,2.48-18.48,2.76-9.93,3.31-16.83,1.65-18.49-2.75-2.76-3-2.21-9.65,21-2.49,8.83-5.8,16-7.18,16s-3,3-4.14,6.9c-1.37,5.24-3.58,6.9-9.1,6.9-14.35,0-42.77-5.79-50.49-10.21-4.14-2.76-8.28-3.86-9.38-2.76-3.59,3.31,5,10.21,17.93,14.07l12.69,4.48h-31.73c-17.38.77-44.15,1-59.32,1.67h-27.46v56.21c1.25,31.18.42,67.6-1.24,81.4-6.07,55.73-6.34,62.08-1.38,62.08,2.49,0,5,2.48,5.8,5.79,1.1,4.14,3,5.25,7.45,4.14a51.43,51.43,0,0,1,10.76-1.65c2.48,0,4.69-1.93,4.69-4.14,0-3,3.31-3.59,17.38-2.49,9.38.56,41.11-.55,70.36-2.75,52.15-3.87,61.26-3.59,61.26,1.38,0,1.37,5.24,2.48,11.86,2.48,17.38,0,22.35-6.9,20.69-28.7l-1.38-16.83,2.76,13c1.66,7.73,4.42,13.24,6.63,13.24,4.69,0,5,.56-4.7-35.86-4.41-17.39-8.27-33.39-8.27-35.32s6.34,8.83,14.07,23.45c7.73,14.9,15.17,27.59,16.28,28.42,1.38.83-1.38,6.62-5.8,13.24-4.41,6.35-8,13.25-8,15.18,0,9.93,14.9,11.59,17.94,1.93,1.65-5.24,13.79-8.28,33.94-8.28,9.65,0,11.58.83,11.58,5.25q0,10.33,12.42,7.45c9.93-2.49,11.59-11.87,3.31-20.42-3.86-4.14-9.66-12.69-13-19-6.34-12.14-12.69-44.7-10.21-51.32.83-2.21,6.35-4.69,12.42-5.52,12.42-2.21,25.38-11.31,25.38-18.21,0-2.76-3-7.73-6.62-11-14.07-13.24-73.12-9.38-89.12,5.8-14.07,13.24-2.48,27.31,23.73,28.42,6.9.27,13,1.93,13.52,3.58,1.38,4.14-9.38,36.7-14.07,43.05-3,4.14-5.52.83-19.87-27.32-11.59-22.9-16.28-35-16.28-43.32l-.27-11.59,26.21-6.34c59-13.8,59.6-14.07,64.56-25.11,6.35-14.62,9.66-32.56,9.94-51.32,0-16.28-12.42-78.36-16.56-82.78-1.1-1.1,2.21-6.07,7.73-11a132.24,132.24,0,0,0,17.66-20.7c14.34-22.9,9.1-65.67-9.66-77.25-17.11-11-62.08-17.39-75.05-11m40.84,6.9c11,2.48,23.17,6.34,27,8.27,9.66,5,19,24.56,19,39.74,0,30.62-29.52,60.7-59.59,60.7-11.87,0-17.66-2.49-17.66-7.45,0-2.76-1.66-3.31-5.52-2.21-4.42,1.38-7.18-1.1-14.07-11.59-8-12.69-8.56-14.35-7.18-35.87,1.11-18.76,2.76-25.11,9.94-37.8,6.62-11.31,10.48-15.45,16.27-16.28,4.14-.55,8.56-1.38,9.66-1.65,1.11,0,11,1.65,22.08,4.14m7.45,115.61c0,.55-5.8,9.65-13,19.86l-13.25,18.76-2.76-17.93-2.76-17.94,12.42-1.65c6.9-.83,14.07-1.93,16-1.93,1.66-.28,3.32,0,3.32.83m17.6,48.77c6.07,29.8,5.8,43.32-1.65,67.05l-4.14,14.08L2057.71,473c-16.83,1.65-36.14,3.86-42.49,4.69l-11.87,1.38V451.21h13.53c15.72,0,17.93-2.21,15.72-15.45-1.65-7.45-3.31-9.38-8.27-9.38-4.14,0-7.18-1.93-7.73-5-1.1-4.14,1.1-5.79,10.76-8.55,6.62-2.21,13.8-6.35,16-9.39,4.14-5.79,4.14-5.79,4.14,1.66,0,14.62,7.18,7.17,22.08-22.9,11-22.35,15.72-29.25,17.38-26.21,1.1,2.2,4.69,16.83,7.72,32.55m-36.92-.49c-1.65,3.31-3.86,5.24-4.69,4.69-.55-.83.28-4.14,1.93-7.45s3.87-5.24,4.69-4.69c.55.83-.27,4.14-1.93,7.45m-33.11,50.77c0,2.21-2.76,4.41-6.07,5.24-3.59.83-52.7,1.66-109,1.93-91,.28-102.92-.27-102.92-3.86,0-4.69,13.53-5.24,154-6.62,53.25-.55,64,0,64,3.31m-28.14,25.89c.55,6.62-.28,13.52-1.38,15.18-2.49,3.31-.83,59,3.31,112.57l1.93,26.76-42.21,1.66c-23.46,1.1-68.43,2.48-100.16,3.31l-57.67,1.66,1.93-26.77c.83-14.62,2.21-27.86,3-29,.82-1.38,1.65-21.52,1.93-44.7.55-58.22,1.65-70.63,7.17-71.74,2.48-.55,44.15-.82,92.71-.82h88.57Zm61.25,16.88c-2.21,1.38-13.52,4.41-24.83,6.62-11.31,2.48-22.9,5.24-25.39,6.07-3.58,1.38-5,.55-5-2.48,0-5,4.41-6.35,31.73-9.66,27.59-3.31,28.42-3.31,23.45-.55M2100,508.93c2.48,2.21,4.69,5.8,4.69,7.45,0,10.76-61,19.87-78.64,11.87-10.76-5-8.55-13.52,5.52-18.76,21.52-8.56,59-8.83,68.43-.56m-31.18,44.7a94.49,94.49,0,0,0,5.52,30.91c3,8,5.52,15.17,5.52,15.72s-5.52,0-11.87-.83c-6.62-1.1-15.45-.55-19.31.83-4.14,1.66-7.45,2.49-7.45,1.93,0-.82,3-7.17,6.62-14.62,3.86-7.17,8.83-21.52,11.31-32,2.76-10.2,5.8-18.48,7.17-18.48s2.49,7.45,2.49,16.55m2.76,55.19c-10.49,3.31-30.08,3.31-24.84,0,2.21-1.38,10.49-2.49,17.94-2.49,11,.28,12.42.83,6.9,2.49M2096.39,621c0,.82-1.1,2.2-2.76,3-1.38.83-2.76.28-2.76-1.1a3,3,0,0,1,2.76-3c1.66,0,2.76.55,2.76,1.11" transform="translate(-69.47 -14.72)"/><path d="M2915.28,25.69C2898,12.74,2857.91,11,2840.66,21.8h-1.32c-18.55,12.08-26.74,22.43-34.51,44-6.9,19.84-9,63-4.31,82.81,2.16,7.77.86,11.65-3.88,13.37-3.88,1.73-6.9,5.61-6.9,9.06s-7.33,17.69-16.39,31.49c-9.49,13.8-24.16,36.23-33.21,50-12.51,19-25,30.62-52.19,48.31-19.84,12.94-38.39,23.72-41.84,23.72-8.2,0-13.37,7.33-20.7,26.74-3,9.06-6.91,16.39-8.63,16.39-6,0-22.86-31.92-17.69-33.64,14.24-4.74,33.65-22.43,42.7-39.25,10.79-20.7,12.51-43.13,5.18-64.7-10.35-30.19-63.84-39.68-95.32-17.25-14.67,10.78-28.9,38.39-29.33,56.93,0,13.81,10.35,40.55,20.27,51.33,6.47,7.33,6.47,7.76-2.59,7.76-5.17,0-22.86-12.07-41.4-28-39.69-34.94-53.06-36.66-15.53-2.16,32.35,29.76,45.72,37.09,79.36,43.14l20.48,3.95a5.07,5.07,0,0,1,4.11,5v29.88s-3.73,53.92-8.47,78.5c-8.19,44-21.57,144.5-21.57,163.47,0,6,1.73,8.2,3.89,6,2.15-2.58,6.9-31.48,10.78-64.69s8.63-67.29,10.35-75.49l3-15.09,2.16,21.13,1.8,17.69a5.07,5.07,0,0,0,3.69,4.37l24.7,6.84c39.68,10.78,56.07,13.37,56.07,9.06,0-2.16-16.82-8.2-37.52-13.37-15.71-3.93-29.67-7.61-35.69-9.53a5,5,0,0,1-3.5-4.53c-.48-9.56.29-73.07.29-73.07l1-58.46a5.15,5.15,0,0,1,9.5-2.67c7,11.39,8.32,18.4,6.13,35.92-1.31,11.83-1.31,20.59.88,19.28,1.75-1.32,3.5-9.64,3.5-18.4l.44-16.21,7.89,9.63c4.81,5.7,10.51,10.08,12.7,10.08,5.26,0,9.64-25.41,9.64-55.64V336a5.08,5.08,0,0,1,2.34-4.28l33.46-21.36c37.09-24.16,62.11-48.74,74.62-72.9a386.83,386.83,0,0,1,22.42-37.09c11.65-17.68,16.83-22,22.86-20.27,6,2.16,8.2.43,8.2-5.61,0-6.9,4.31-8.63,25.45-10.78,66-6.9,108.26-41,108.26-87.13C2946.33,61.05,2932.53,38.62,2915.28,25.69ZM2584.59,327.61c-14.23,1.73-19.41.43-30.63-9.06-44.85-37.52-17.25-110.42,41.41-110.42,15.53,0,21.14,2.59,33.21,14.67s14.67,17.68,14.67,33.21C2643.25,291.38,2616.94,323.3,2584.59,327.61Zm53.91,25.88c0,4.31-1.29,15.53-3.45,25-2.58,16-3.45,16.39-7.76,8.19-3.88-6.9-3.88-12.94-.43-24.58C2632,345.73,2638.94,340.55,2638.5,353.49Zm284-237.16c-2.49,6.59-11,13-15.6,15.8-5.15,3.13-11.11,5.1-16.64,7.44q-3.75,1.59-7.54,3.08c-11.14,5.86-27.21,10.26-46.21,12.43-27.6,2.59-28,2.16-29.76-35.37-1-17.53-.84-29.53.4-35.07a60.5,60.5,0,0,1,1.12-6.77c1.49-7.55,5.27-14.56,9.46-20.93,4.8-7.3,10.39-14.89,17.1-21,5.09-5.22,9.19-8.06,11.4-8.51a34.25,34.25,0,0,1,11.58-4c2.52-1.13,8.74-.75,21.4.49,22,2.16,26.74,4.74,41.41,19.84,11.21,12.08,16,21.14,16,30.62C2936.55,87.64,2928.29,110.76,2922.47,116.33Z" transform="translate(-69.47 -14.72)"/><g id="BAPC_2021_VU_Amsterdam_2021-10-30" data-name="BAPC 2021 VU Amsterdam 2021-10-30"><path d="M110.94,477.19,74.46,312.71H95.83l25.8,121.23,24.59-121.23H167L130.9,477.19Z" transform="translate(-69.47 -14.72)"/><path d="M226.45,479q-17.74,0-27.21-7.1t-12.91-20q-3.42-12.9-3.42-30.16v-109h21.77V422.77a121.44,121.44,0,0,0,1.41,19.29q1.41,8.73,6.15,13.81t14.21,5.07q9.68,0,14.31-5.07t6.05-13.81a121.44,121.44,0,0,0,1.41-19.29V312.71h21.57v109q0,17.26-3.43,30.16t-12.8,20Q244.19,479,226.45,479Z" transform="translate(-69.47 -14.72)"/><path d="M331.07,477.19l34.67-164.48h22l34.88,164.48H401l-7.46-41.43H360.3l-7.86,41.43Zm32.25-57.87h27.22L376.83,345.2Z" transform="translate(-69.47 -14.72)"/><path d="M437.3,477.19V359.82h20V371a38.49,38.49,0,0,1,12.9-9.95,34.42,34.42,0,0,1,14.51-3.25A21.27,21.27,0,0,1,496.26,361q5.14,3.25,7.36,11.57a40.34,40.34,0,0,1,13.61-11.27,35.12,35.12,0,0,1,15.42-3.55,19.9,19.9,0,0,1,10.28,2.74,19.3,19.3,0,0,1,7.46,8.73q2.82,6,2.82,15.74v92.19H533.46V386.42q0-8.52-2.73-11.47a9.52,9.52,0,0,0-7.35-2.95,20,20,0,0,0-9.28,2.54,32.2,32.2,0,0,0-8.87,7v95.64H485.48V386.42q0-8.52-2.72-11.47A9.56,9.56,0,0,0,475.4,372a19.38,19.38,0,0,0-9.17,2.54,35.66,35.66,0,0,0-9,7v95.64Z" transform="translate(-69.47 -14.72)"/><path d="M601.39,478.81q-14.32,0-23-9t-9.88-23.85l17.94-5.49q1.6,11.18,5.44,16.76t11.29,5.58q5.85,0,8.87-3.35t3-9a18.72,18.72,0,0,0-2.22-9.13,30.56,30.56,0,0,0-7.26-8.33l-20-17.26a54.25,54.25,0,0,1-10.18-11.78q-4.12-6.5-4.13-16.85,0-9.33,3.73-15.74a24.43,24.43,0,0,1,10.48-9.74,35.13,35.13,0,0,1,15.83-3.35q13.9,0,21.26,9A38.42,38.42,0,0,1,631,389.06l-14.51,5.48a53.74,53.74,0,0,0-2.42-10.66,17,17,0,0,0-4.44-7.1,10.74,10.74,0,0,0-7.46-2.54,10.6,10.6,0,0,0-8.36,3.55,12.32,12.32,0,0,0-3.13,8.43,14.65,14.65,0,0,0,1.31,6,17.51,17.51,0,0,0,4.54,5.79l20.56,19.08a84.84,84.84,0,0,1,8,8.33,40.26,40.26,0,0,1,6.15,10.15,33.54,33.54,0,0,1,2.42,13.2q0,9.94-4,16.65a25.13,25.13,0,0,1-11.29,10A40.08,40.08,0,0,1,601.39,478.81Z" transform="translate(-69.47 -14.72)"/><path d="M680.81,478.81q-9.07,0-14.61-3.45a19.81,19.81,0,0,1-8.07-9.75,39.74,39.74,0,0,1-2.52-14.82V374.24H643.32V359.82h12.29V325.51h21.57v34.31h18.75v14.42H677.18v75.13q0,6.9,2.22,9.85t8.47,2.94c1.07,0,2.31-.07,3.72-.2l4.14-.41v16c-2.69.41-5.18.71-7.46.92S683.5,478.81,680.81,478.81Z" transform="translate(-69.47 -14.72)"/><path d="M744.11,478.81q-13.71,0-21.17-5.38t-10.38-15.84q-2.92-10.45-2.92-25.68V405.1q0-15.63,3-26t10.58-15.63q7.56-5.28,20.87-5.28,14.71,0,21.67,6.09T775,381.85a147.09,147.09,0,0,1,2.22,27.52v9.54h-46v23.55A42,42,0,0,0,732.52,454a12,12,0,0,0,4.23,6.6,12.53,12.53,0,0,0,7.56,2.13q4.83,0,7.36-2.34a12.14,12.14,0,0,0,3.42-6.7,50.47,50.47,0,0,0,.91-10.25v-7.11h21v4.47q0,17.67-7.46,27.82T744.11,478.81Zm-12.9-71.68H756V396.57a78.23,78.23,0,0,0-.81-12.28,13.35,13.35,0,0,0-3.32-7.51c-1.68-1.69-4.34-2.54-8-2.54s-6.15.81-8,2.44-3.06,4.36-3.73,8.22a98.29,98.29,0,0,0-1,15.94Z" transform="translate(-69.47 -14.72)"/><path d="M797.32,477.19V359.82h21.57v16.65q6.45-10.75,12.9-14.41a26,26,0,0,1,12.91-3.66h1.51a12.74,12.74,0,0,1,1.91.2v24a33.93,33.93,0,0,0-5.54-1.72,28.81,28.81,0,0,0-6.35-.71,18.36,18.36,0,0,0-9.17,2.33q-4.14,2.34-8.17,9v85.69Z" transform="translate(-69.47 -14.72)"/><path d="M888.44,478.81q-14.72,0-22-10.86t-7.26-36.86V408.35a131,131,0,0,1,2.22-24.87q2.21-11.48,8.36-18.38t18-6.9a22,22,0,0,1,10.69,2.64,37.93,37.93,0,0,1,8.67,6.49V312.71h21.57V477.19H907.19v-7.52a35.07,35.07,0,0,1-8.37,6.6A20.92,20.92,0,0,1,888.44,478.81Zm5.44-17.06a20.93,20.93,0,0,0,6.45-1.11,29.31,29.31,0,0,0,6.86-3.35v-77a35.35,35.35,0,0,0-6.25-3.55,18.1,18.1,0,0,0-7.46-1.53q-7.47,0-10.08,7.21a51,51,0,0,0-2.62,17.36v33.1a107.78,107.78,0,0,0,.91,14.72q.9,6.6,3.73,10.36T893.88,461.75Z" transform="translate(-69.47 -14.72)"/><path d="M971.49,478.81a19.54,19.54,0,0,1-12.1-4,27.72,27.72,0,0,1-8.26-10.15,29.45,29.45,0,0,1-3-13.1q0-11,3.63-18.48a36.94,36.94,0,0,1,10-12.69,68.48,68.48,0,0,1,14.72-9q8.36-3.86,17.64-7.52v-8.32a72,72,0,0,0-.81-11.78,12,12,0,0,0-3.33-7q-2.52-2.34-7.56-2.34a11.68,11.68,0,0,0-7.15,2,11.26,11.26,0,0,0-3.93,5.79,28.82,28.82,0,0,0-1.21,8.83V397l-21.37-.81q.4-19.5,8.87-28.73t26.2-9.24q17.34,0,24.6,9.54t7.26,27.62V449q0,5.49.3,10.56c.2,3.39.47,6.53.8,9.44s.64,5.66.91,8.23H997.9c-.41-2.17-.91-4.91-1.52-8.23s-1-6.32-1.31-9a31.24,31.24,0,0,1-7.76,12.89Q981.57,478.81,971.49,478.81ZM980,460.13a10.92,10.92,0,0,0,6-1.83,27.64,27.64,0,0,0,5-4.16,21.72,21.72,0,0,0,3-3.76v-33.3q-5,2.85-9.48,5.69a52.52,52.52,0,0,0-7.76,6,24.25,24.25,0,0,0-5.24,7.1,20.49,20.49,0,0,0-1.92,9q0,7.11,2.62,11.17A8.55,8.55,0,0,0,980,460.13Z" transform="translate(-69.47 -14.72)"/><path d="M1036.4,477.19V359.82h19.95V371a38.69,38.69,0,0,1,12.9-9.95,34.49,34.49,0,0,1,14.52-3.25,21.29,21.29,0,0,1,11.59,3.25q5.15,3.25,7.36,11.57a40.31,40.31,0,0,1,13.6-11.27,35.19,35.19,0,0,1,15.43-3.55,19.92,19.92,0,0,1,10.28,2.74,19.28,19.28,0,0,1,7.45,8.73q2.83,6,2.83,15.74v92.19h-19.76V386.42q0-8.52-2.72-11.47a9.54,9.54,0,0,0-7.36-2.95,20,20,0,0,0-9.27,2.54,32,32,0,0,0-8.87,7v95.64h-19.75V386.42q0-8.52-2.73-11.47a9.52,9.52,0,0,0-7.35-2.95,19.44,19.44,0,0,0-9.18,2.54,35.84,35.84,0,0,0-9,7v95.64Z" transform="translate(-69.47 -14.72)"/></g><path d="M69.47,276.32V40.25h54q15.95,0,27.7,3.5A48.63,48.63,0,0,1,170.7,54.53,43.89,43.89,0,0,1,182.3,73q3.76,11.22,3.77,26.38,0,14.56-3.63,25.2t-11,16.76q-7.39,6.12-19,7.87,14.22,3.21,22.92,10.93A46.19,46.19,0,0,1,188.24,180q4.22,12.09,4.21,29A103.26,103.26,0,0,1,189,236.68,55.38,55.38,0,0,1,178.09,258a49.11,49.11,0,0,1-18.85,13.55q-11.46,4.8-27.12,4.81Zm32.77-137.56h19.44q13.92,0,21.75-3.94a22,22,0,0,0,11-12.67q3.2-8.75,3.19-22.73,0-16.32-4.93-23.61t-15.37-9.18q-10.44-1.89-27.26-1.9h-7.84Zm0,114h22.05q22,0,29.44-10.34T161.12,209q0-14.87-3.91-24.92a29.44,29.44,0,0,0-12.47-15.16q-8.56-5.08-23.06-5.1H102.24Z" transform="translate(-69.47 -14.72)"/><path d="M208.69,276.32,258.58,40.25h31.61l50.18,236.07h-31L298.6,216.86H250.75l-11.32,59.46Zm46.41-83.06h39.15L274.53,86.88Z" transform="translate(-69.47 -14.72)"/><path d="M364.15,276.32V40.25h58.3q21.18,0,33.79,7.73a44.66,44.66,0,0,1,18.42,22.29q5.8,14.58,5.8,35.27,0,18.64-6.52,32.34A47.37,47.37,0,0,1,454.65,159q-12.76,7.44-31.91,7.44H396.93V276.32Zm32.78-133.48H412q14.21,0,22.34-3.21A20.29,20.29,0,0,0,446,128.41q3.48-8,3.48-22.58,0-16.9-2.47-25.94T436.67,67.36q-7.83-3.51-24.37-3.5H396.93Z" transform="translate(-69.47 -14.72)"/><path d="M562.26,278.94q-25,0-38.72-10.49t-19.15-28.27Q499,222.41,499,200.54V117.19q0-23.89,5.36-41.67T523.54,48q13.77-9.76,38.72-9.77,22,0,35,8.16a45.56,45.56,0,0,1,18.56,23.32q5.65,15.15,5.66,36.43v18.65h-31V108.16A182.07,182.07,0,0,0,589.09,85q-1.3-10-7.11-15.59t-19.43-5.54q-13.92,0-20.31,6T534,86.74a151.23,151.23,0,0,0-1.89,25.5v93.55q0,17.78,2.9,28.12t9.57,14.72q6.68,4.38,18,4.37,13.34,0,19.14-6t7.25-16.47a180.47,180.47,0,0,0,1.45-24.48V188.59h31v17.49q0,21.57-5.22,38t-18,25.65Q585.46,278.94,562.26,278.94Z" transform="translate(-69.47 -14.72)"/><path d="M712.79,276.32V254.17l59.75-93.55q6.68-10.5,12.33-19.53A99.65,99.65,0,0,0,794.15,122a68.28,68.28,0,0,0,3.62-23.17q0-16.32-5.22-25.64t-18.27-9.33q-11,0-17.11,6.12a32.68,32.68,0,0,0-8.41,16,93,93,0,0,0-2.32,21.27v7.87h-31V107q0-21.27,5.66-36.57t18.27-23.76q12.61-8.44,33.5-8.45,28.42,0,42.35,16.18T829.1,99.12a87.62,87.62,0,0,1-3.62,26.52,106.26,106.26,0,0,1-9.43,21.28q-5.81,9.92-12.76,20.4l-53.95,82.77h74.25v26.23Z" transform="translate(-69.47 -14.72)"/><path d="M914.66,278.94q-20,0-32.92-9a53.42,53.42,0,0,1-19.14-24.78q-6.24-15.74-6.24-35.84V107.58q0-20.7,6.1-36.29a50.86,50.86,0,0,1,19-24.33q12.91-8.74,33.21-8.75T947.73,47q12.76,8.73,18.85,24.33t6.09,36.29V209.29q0,20.4-6.23,36.14t-19,24.62Q934.68,278.95,914.66,278.94Zm0-25.65q11,0,16.68-6.41a35.79,35.79,0,0,0,7.83-16.46,98.35,98.35,0,0,0,2.18-20.84V107.28a108.48,108.48,0,0,0-2-21.42q-2-10-7.69-16.17t-17-6.12q-11.31,0-17.11,6.12t-7.83,16.17a108.48,108.48,0,0,0-2,21.42v102.3a98.35,98.35,0,0,0,2.18,20.84A34.23,34.23,0,0,0,898,246.88Q903.93,253.3,914.66,253.29Z" transform="translate(-69.47 -14.72)"/><path d="M1001.39,276.32V254.17l59.75-93.55q6.67-10.5,12.33-19.53a99.65,99.65,0,0,0,9.28-19.09,68.28,68.28,0,0,0,3.62-23.17q0-16.32-5.22-25.64t-18.27-9.33q-11,0-17.11,6.12a32.68,32.68,0,0,0-8.41,16,93,93,0,0,0-2.32,21.27v7.87h-31V107q0-21.27,5.66-36.57t18.27-23.76q12.61-8.44,33.5-8.45,28.42,0,42.35,16.18t13.92,44.73q0,15.16-3.63,26.52a105.67,105.67,0,0,1-9.42,21.28q-5.81,9.92-12.76,20.4l-54,82.77h74.25v26.23Z" transform="translate(-69.47 -14.72)"/><path d="M1177.74,276.32V81.05c-.2.2-2.37.78-6.53,1.75s-8.84,2-14.06,2.92-9.87,1.85-13.93,2.62-6.19,1.17-6.38,1.17V65.9q4.94-1.16,11.46-3.21a138.6,138.6,0,0,0,13.34-4.95,71.75,71.75,0,0,0,13-7.29,45.9,45.9,0,0,0,10.59-10.2h23.49V276.32Z" transform="translate(-69.47 -14.72)"/><path d="M78.78,629.65V618.76l29.31-46q3.28-5.16,6-9.6a49.08,49.08,0,0,0,4.56-9.39,33.78,33.78,0,0,0,1.77-11.4q0-8-2.56-12.61t-9-4.59c-3.61,0-6.4,1-8.4,3a16.15,16.15,0,0,0-4.12,7.89,45.81,45.81,0,0,0-1.14,10.46v3.87H80.06v-4a52.08,52.08,0,0,1,2.78-18,23.37,23.37,0,0,1,9-11.68q6.2-4.15,16.44-4.16,13.94,0,20.77,8t6.83,22a43,43,0,0,1-1.78,13A51,51,0,0,1,129.44,566q-2.85,4.88-6.26,10l-26.47,40.7h36.43v12.9Z" transform="translate(-69.47 -14.72)"/><path d="M177.82,630.94q-9.82,0-16.15-4.44a26.25,26.25,0,0,1-9.39-12.18,47.67,47.67,0,0,1-3.06-17.63v-50a48.79,48.79,0,0,1,3-17.84,25,25,0,0,1,9.32-12q6.33-4.3,16.29-4.3t16.22,4.3a25.22,25.22,0,0,1,9.25,12,49,49,0,0,1,3,17.84v50a48.06,48.06,0,0,1-3.06,17.77,26,26,0,0,1-9.32,12.11Q187.63,631,177.82,630.94Zm0-12.61q5.4,0,8.18-3.15a17.64,17.64,0,0,0,3.84-8.1,48.55,48.55,0,0,0,1.07-10.25V546.52a52.73,52.73,0,0,0-1-10.53,16.14,16.14,0,0,0-3.77-8q-2.77-3-8.32-3t-8.4,3a15.79,15.79,0,0,0-3.84,8,53.47,53.47,0,0,0-1,10.53v50.31a48.55,48.55,0,0,0,1.07,10.25,16.87,16.87,0,0,0,4,8.1Q172.55,618.33,177.82,618.33Z" transform="translate(-69.47 -14.72)"/><path d="M220.36,629.65V618.76l29.32-46q3.27-5.16,6-9.6a49.08,49.08,0,0,0,4.56-9.39,33.77,33.77,0,0,0,1.78-11.4q0-8-2.56-12.61t-9-4.59c-3.61,0-6.4,1-8.39,3a16.08,16.08,0,0,0-4.13,7.89,45.81,45.81,0,0,0-1.14,10.46v3.87H221.65v-4a52.09,52.09,0,0,1,2.77-18,23.37,23.37,0,0,1,9-11.68q6.19-4.15,16.44-4.16,13.95,0,20.77,8t6.83,22a43.3,43.3,0,0,1-1.77,13A51.61,51.61,0,0,1,271,566q-2.85,4.88-6.26,10l-26.47,40.7h36.43v12.9Z" transform="translate(-69.47 -14.72)"/><path d="M306.88,629.65v-96a21.5,21.5,0,0,1-3.2.86q-3.06.72-6.9,1.43L290,537.2c-2,.39-3,.58-3.13.58V526.17q2.42-.57,5.62-1.58a68.62,68.62,0,0,0,6.54-2.44,35.13,35.13,0,0,0,6.4-3.58,22.38,22.38,0,0,0,5.2-5H322.1v116.1Z" transform="translate(-69.47 -14.72)"/><path d="M345.87,592.24V580.63H377.6v11.61Z" transform="translate(-69.47 -14.72)"/><path d="M408.9,629.65v-96a21.05,21.05,0,0,1-3.2.86q-3.06.72-6.9,1.43L392,537.2c-2,.39-3,.58-3.13.58V526.17c1.61-.38,3.49-.91,5.62-1.58a68.77,68.77,0,0,0,6.55-2.44,35.46,35.46,0,0,0,6.4-3.58,22.33,22.33,0,0,0,5.19-5h11.53v116.1Z" transform="translate(-69.47 -14.72)"/><path d="M477.77,630.94q-9.81,0-16.15-4.44a26.25,26.25,0,0,1-9.39-12.18,47.67,47.67,0,0,1-3.06-17.63v-50a49,49,0,0,1,3-17.84,25,25,0,0,1,9.32-12q6.33-4.3,16.29-4.3t16.22,4.3a25.16,25.16,0,0,1,9.25,12,49,49,0,0,1,3,17.84v50a48.06,48.06,0,0,1-3.06,17.77,26,26,0,0,1-9.32,12.11Q487.6,631,477.77,630.94Zm0-12.61c3.61,0,6.33-1.05,8.18-3.15a17.75,17.75,0,0,0,3.85-8.1,48.56,48.56,0,0,0,1.06-10.25V546.52a53.49,53.49,0,0,0-1-10.53,16.23,16.23,0,0,0-3.77-8q-2.78-3-8.33-3t-8.39,3a15.89,15.89,0,0,0-3.85,8,53.49,53.49,0,0,0-1,10.53v50.31a47.91,47.91,0,0,0,1.07,10.25,16.94,16.94,0,0,0,4,8.1Q472.5,618.33,477.77,618.33Z" transform="translate(-69.47 -14.72)"/><path d="M521.46,592.24V580.63h31.73v11.61Z" transform="translate(-69.47 -14.72)"/><path d="M594,630.94q-9.39,0-15.66-3.58A22.54,22.54,0,0,1,569,617a37.39,37.39,0,0,1-3.13-15.91v-3.87h15.09v2.58a42.06,42.06,0,0,0,1.2,9.32,12.75,12.75,0,0,0,3.85,6.59q2.78,2.44,8,2.44c3.7,0,6.49-.89,8.39-2.66a13.61,13.61,0,0,0,3.84-7.52,55.73,55.73,0,0,0,1-11.18q0-9.17-3.34-15t-11.74-6.38a3.61,3.61,0,0,0-1.07-.14H590V560h2q8.12-.29,11.67-4.3t3.56-13.33q0-7.87-2.63-12.61T594.17,525q-7.83,0-10.39,5.23t-2.84,13.4v2.44H565.85v-3.87A36.82,36.82,0,0,1,569,526.31a22.58,22.58,0,0,1,9.46-10.18q6.34-3.57,15.73-3.58T610,516.13a22.51,22.51,0,0,1,9.39,10.25,37.31,37.31,0,0,1,3.13,16q0,10.47-4.48,16.77a22.21,22.21,0,0,1-12,8.6,19.78,19.78,0,0,1,8.89,5.45,26.33,26.33,0,0,1,5.62,9.82,43.51,43.51,0,0,1,2,13.83,51.58,51.58,0,0,1-2.84,18,23.9,23.9,0,0,1-9.11,11.89Q604.28,630.94,594,630.94Z" transform="translate(-69.47 -14.72)"/><path d="M664.89,630.94q-9.82,0-16.15-4.44a26.12,26.12,0,0,1-9.39-12.18,47.47,47.47,0,0,1-3.06-17.63v-50a49,49,0,0,1,3-17.84,25.1,25.1,0,0,1,9.32-12q6.33-4.3,16.3-4.3t16.22,4.3a25.22,25.22,0,0,1,9.25,12,49,49,0,0,1,3,17.84v50a48.06,48.06,0,0,1-3.06,17.77A26,26,0,0,1,681,626.57Q674.7,631,664.89,630.94Zm0-12.61q5.4,0,8.18-3.15a17.64,17.64,0,0,0,3.84-8.1A48.55,48.55,0,0,0,678,596.83V546.52A52.73,52.73,0,0,0,677,536a16.14,16.14,0,0,0-3.77-8q-2.78-3-8.32-3t-8.4,3a15.79,15.79,0,0,0-3.84,8,53.47,53.47,0,0,0-1,10.53v50.31a48.55,48.55,0,0,0,1.07,10.25,16.87,16.87,0,0,0,4,8.1Q659.62,618.33,664.89,618.33Z" transform="translate(-69.47 -14.72)"/><path d="M2179.85,228.05c8.15-3.05,39.83-8,7.49-8s-19.82,19.54-19.82,19.54l19.82-5.88,20.21-25.58" transform="translate(-69.47 -14.72)"/></svg>