<?xml version="1.0" encoding="utf-8"?>
<!-- Generator: Adobe Illustrator 26.0.0, SVG Export Plug-In . SVG Version: 6.00 Build 0)  -->
<svg version="1.1" id="Layer_1" xmlns="http://www.w3.org/2000/svg" xmlns:xlink="http://www.w3.org/1999/xlink" x="0px" y="0px"
	 viewBox="0 0 1093 858" style="enable-background:new 0 0 1093 858;" xml:space="preserve">
<style type="text/css">
	.st0{fill:#0D0D0D;}
	.st1{fill:#F00000;}
</style>
<symbol  id="All" viewBox="-111 -180 222 360">
	<path id="sA1_00000168814356897541033600000002820137230815481472_" class="st0" d="M-81,180l-10-10l30-30h55v30l-10,10H-81z"/>
	<path id="sA2_00000036232336664271323080000016836991266600182188_" class="st0" d="M4,140h55l30,30l-10,10H14L4,170V140z"/>
	<path id="sB_00000036938832734946576030000015364128830825623691_" class="st0" d="M69,130l30,30l10-10V30L99,10L69,30V130z"/>
	<path id="sC_00000103267471048401891740000012917775178856362383_" class="st0" d="M69-30l30,20l10-20v-120l-10-10l-30,30V-30z"/>
	<path id="sD1_00000119120069181011080590000015843365418329863605_" class="st0" d="M-61-140h55v-30l-10-10h-65l-10,10L-61-140z"/>
	<path id="sD2_00000096763211635206529240000015309207327234636424_" class="st0" d="M4-140h55l30-30l-10-10H14L4-170V-140z"/>
	<path id="sE_00000084498745233799661890000012114217635126927498_" class="st0" d="M-101-160l-10,10v120l10,20l30-20v-100L-101-160
		z"/>
	<path id="sF_00000110432039694383184130000011601631109431480253_" class="st0" d="M-101,10l-10,20v120l10,10l30-30V30L-101,10z"/>
	<path id="sG1_00000075856005066429562430000006330838727505596336_" class="st0" d="M-101,0l40,20h55v-40h-55L-101,0z"/>
	<path id="sG2_00000037667245067962269450000017679064585445820598_" class="st0" d="M99,0L59-20H4v40h55L99,0z"/>
	<path id="sH_00000065066193193138668610000012529120966537363855_" class="st0" d="M-61,130h15l15-30l20-70h-15l-35,50V130z"/>
	<path id="sI_00000127759065664674144490000012145957248684140946_" class="st0" d="M14,130v-30L-1,30l-15,70v30H14z"/>
	<path id="sJ_00000103265028832690276540000016782850364588032408_" class="st0" d="M29,100l15,30h15V80L24,30H9L29,100z"/>
	<path id="sK_00000089558952802537791060000007357028453184446098_" class="st0" d="M-26-30h15l-20-70l-15-30h-15v50L-26-30z"/>
	<path id="sL_00000164500790530702927710000006703235730678298791_" class="st0" d="M-1-30l15-70v-30h-30v30L-1-30z"/>
	<path id="sM_00000084506254809767765140000002214053559190709674_" class="st0" d="M9-30h15l35-50v-50H44l-15,30L9-30z"/>
	<circle id="sDP_00000070077718081362550430000005696543814964626305_" class="st0" cx="104" cy="-170" r="7"/>
</symbol>
<symbol  id="U0030" viewBox="-110 -180 220 360">
	<path id="sA1-16_00000147216785842698730670000001079317092169483428_" class="st1" d="M-80,180l-10-10l30-30h55v30l-10,10H-80z"/>
	<path id="sA2-16_00000017476268343741573260000007107374120673434014_" class="st1" d="M5,140h55l30,30l-10,10H15L5,170V140z"/>
	<path id="sB-15_00000039838354153203481720000001298702631809073586_" class="st1" d="M70,130l30,30l10-10V30l-10-20L70,30V130z"/>
	<path id="sC-11_00000085230392550711104840000008069504214548476569_" class="st1" d="M70-30l30,20l10-20v-120l-10-10l-30,30V-30z"
		/>
	<path id="sD1-14_00000182507522304571250810000008886260712995297718_" class="st1" d="M-60-140h55v-30l-10-10h-65l-10,10L-60-140z
		"/>
	<path id="sD2-14_00000085969391165554288280000004780343890555778725_" class="st1" d="M5-140h55l30-30l-10-10H15L5-170V-140z"/>
	<path id="sE-15_00000070107652062147698560000010303656546569081988_" class="st1" d="M-100-160l-10,10v120l10,20l30-20v-100
		L-100-160z"/>
	<path id="sF-12_00000000223535918939549650000018092580847145958031_" class="st1" d="M-100,10l-10,20v120l10,10l30-30V30L-100,10z
		"/>
	<path id="sJ-9_00000171711970392115576180000008613710429137200012_" class="st1" d="M30,100l15,30h15V80L25,30H10L30,100z"/>
	<path id="sK-9_00000122713187521591309410000005587690703015968146_" class="st1" d="M-25-30h15l-20-70l-15-30h-15v50L-25-30z"/>
</symbol>
<symbol  id="U0032" viewBox="-110 -180 220 360">
	<path id="sA1-10_00000089557404372497560420000005537275720158508191_" class="st1" d="M-80,180l-10-10l30-30h55v30l-10,10H-80z"/>
	<path id="sA2-10_00000099622531198145834400000002330149775050999738_" class="st1" d="M5,140h55l30,30l-10,10H15L5,170V140z"/>
	<path id="sB-9_00000087394634828459682430000017374964969947951260_" class="st1" d="M70,130l30,30l10-10V30l-10-20L70,30V130z"/>
	<path id="sD1-8_00000111165038353089289640000003153737042768030347_" class="st1" d="M-60-140h55v-30l-10-10h-65l-10,10L-60-140z"
		/>
	<path id="sD2-8_00000093165218263194116200000016450075959183116729_" class="st1" d="M5-140h55l30-30l-10-10H15L5-170V-140z"/>
	<path id="sE-9_00000157994388875192785900000000815911898871082898_" class="st1" d="M-100-160l-10,10v120l10,20l30-20v-100
		L-100-160z"/>
	<path id="sG1-8_00000080184268234649527810000017338099650642618517_" class="st1" d="M-100,0l40,20h55v-40h-55L-100,0z"/>
	<path id="sG2-9_00000158029207600345393730000017411595392138844568_" class="st1" d="M100,0L60-20H5v40h55L100,0z"/>
</symbol>
<symbol  id="U0041" viewBox="-110 -170 220 340">
	<path id="sA1-4_00000095300100609651181430000016643566619021469368_" class="st1" d="M-80,170l-10-10l30-30h55v30l-10,10H-80z"/>
	<path id="sA2-4_00000064312383287616735700000005011102316029485232_" class="st1" d="M5,130h55l30,30l-10,10H15L5,160V130z"/>
	<path id="sB-4_00000152969644298117843580000010057587248408510377_" class="st1" d="M70,120l30,30l10-10V20L100,0L70,20V120z"/>
	<path id="sC-4_00000047060525206469022180000005697333456929432990_" class="st1" d="M70-40l30,20l10-20v-120l-10-10l-30,30V-40z"
		/>
	<path id="sE-3_00000114055509079692675780000015134123963710293924_" class="st1" d="M-100-170l-10,10v120l10,20l30-20v-100
		L-100-170z"/>
	<path id="sF-3_00000177476841818842992040000014860633555326437820_" class="st1" d="M-100,0l-10,20v120l10,10l30-30V20L-100,0z"/>
	<path id="sG1-3_00000010296257754402084690000008295258425488514751_" class="st1" d="M-100-10l40,20h55v-40h-55L-100-10z"/>
	<path id="sG2-4_00000152970896479463892690000013886845710225953960_" class="st1" d="M100-10L60-30H5v40h55L100-10z"/>
</symbol>
<symbol  id="U0042" viewBox="-100 -180 200 360">
	<path id="sA1-2_00000026121572245447959560000002090867043835518383_" class="st1" d="M-90,180l-10-10l30-30h55v30l-10,10H-90z"/>
	<path id="sA2-2_00000182506138358800921760000005475692887258629001_" class="st1" d="M-5,140h55l30,30l-10,10H5l-10-10V140z"/>
	<path id="sB-2_00000148638100554472318470000008378776530814544802_" class="st1" d="M60,130l30,30l10-10V30L90,10L60,30V130z"/>
	<path id="sC-2_00000052814841478515820480000012441963921836681378_" class="st1" d="M60-30l30,20l10-20v-120l-10-10l-30,30V-30z"
		/>
	<path id="sD1-2_00000015327088425909337340000009116494445928843194_" class="st1" d="M-70-140h55v-30l-10-10h-65l-10,10L-70-140z"
		/>
	<path id="sD2-2_00000151523311587351466860000017760877168301393031_" class="st1" d="M-5-140h55l30-30l-10-10H5l-10,10V-140z"/>
	<path id="sG2-2_00000114756674349793969330000013627298470207508096_" class="st1" d="M90,0L50-20H-5v40h55L90,0z"/>
	<path id="sI-2_00000080923504154279419430000007920975645915891630_" class="st1" d="M5,130v-30l-15-70l-15,70v30H5z"/>
	<path id="sL-2_00000108281113547039615940000007832624385595964547_" class="st1" d="M-10-30l15-70v-30h-30v30L-10-30z"/>
</symbol>
<symbol  id="U0043" viewBox="-100 -180 200 360">
	<path id="sA1-8_00000163774853717643290630000013244202031241999017_" class="st1" d="M-70,180l-10-10l30-30H5v30l-10,10H-70z"/>
	<path id="sA2-8_00000146474001669170088850000017723479544916471948_" class="st1" d="M15,140h55l30,30l-10,10H25l-10-10V140z"/>
	<path id="sD1-6_00000178162661558248703480000001863003131510464130_" class="st1" d="M-50-140H5v-30l-10-10h-65l-10,10L-50-140z"
		/>
	<path id="sD2-6_00000082347040270745192080000016364188532953644979_" class="st1" d="M15-140h55l30-30l-10-10H25l-10,10V-140z"/>
	<path id="sE-7_00000072250165990766231510000014316321752772459418_" class="st1" d="M-90-160l-10,10v120l10,20l30-20v-100L-90-160
		z"/>
	<path id="sF-7_00000093137779001300761600000017392367877391996317_" class="st1" d="M-90,10l-10,20v120l10,10l30-30V30L-90,10z"/>
</symbol>
<symbol  id="U0050" viewBox="-110 -170 220 340">
	<path id="sA1-6_00000104668397434453700610000017550387743622982019_" class="st1" d="M-80,170l-10-10l30-30h55v30l-10,10H-80z"/>
	<path id="sA2-6_00000044876681424738951350000007123041845509788568_" class="st1" d="M5,130h55l30,30l-10,10H15L5,160V130z"/>
	<path id="sB-6_00000080890257642367837170000007219849767318187696_" class="st1" d="M70,120l30,30l10-10V20L100,0L70,20V120z"/>
	<path id="sE-5_00000058574749047274124910000006339982645654478226_" class="st1" d="M-100-170l-10,10v120l10,20l30-20v-100
		L-100-170z"/>
	<path id="sF-5_00000045619382714024004530000002265223069465592709_" class="st1" d="M-100,0l-10,20v120l10,10l30-30V20L-100,0z"/>
	<path id="sG1-5_00000042726844431038827680000012549527002673767334_" class="st1" d="M-100-10l40,20h55v-40h-55L-100-10z"/>
	<path id="sG2-6_00000172404472274258911830000016514227075109000583_" class="st1" d="M100-10L60-30H5v40h55L100-10z"/>
</symbol>
<g id="Layer_1-2">
	<g>
		<defs>
			<rect id="SVGID_1_" width="222" height="360"/>
		</defs>
		<clipPath id="SVGID_00000136405215713271461890000015607253318393294512_">
			<use xlink:href="#SVGID_1_"  style="overflow:visible;"/>
		</clipPath>
		<g style="clip-path:url(#SVGID_00000136405215713271461890000015607253318393294512_);">
			
				<use xlink:href="#All"  width="222" height="360" x="-111" y="-180" transform="matrix(1 0 0 -1 111 180)" style="overflow:visible;"/>
		</g>
	</g>
	<g>
		<defs>
			<rect id="SVGID_00000167383079862401829120000002591207975392460973_" x="20" width="200" height="360"/>
		</defs>
		<clipPath id="SVGID_00000149353067430228011400000016519796814441192327_">
			<use xlink:href="#SVGID_00000167383079862401829120000002591207975392460973_"  style="overflow:visible;"/>
		</clipPath>
		<g style="clip-path:url(#SVGID_00000149353067430228011400000016519796814441192327_);">
			
				<use xlink:href="#U0042"  width="200" height="360" x="-100" y="-180" transform="matrix(1 0 0 -1 120 180)" style="overflow:visible;"/>
		</g>
	</g>
	<g>
		<defs>
			<rect id="SVGID_00000152949242070187062670000016423937997303973526_" x="286.3" width="222" height="360"/>
		</defs>
		<clipPath id="SVGID_00000152222422411342950480000009630605695568190621_">
			<use xlink:href="#SVGID_00000152949242070187062670000016423937997303973526_"  style="overflow:visible;"/>
		</clipPath>
		<g style="clip-path:url(#SVGID_00000152222422411342950480000009630605695568190621_);">
			
				<use xlink:href="#All"  width="222" height="360" x="-111" y="-180" transform="matrix(1 0 0 -1 397.33 180)" style="overflow:visible;"/>
		</g>
	</g>
	<g>
		<defs>
			<rect id="SVGID_00000141430822302241998400000007895867138704466080_" x="286.3" width="220" height="340"/>
		</defs>
		<clipPath id="SVGID_00000016064327522964378680000005814420807295478162_">
			<use xlink:href="#SVGID_00000141430822302241998400000007895867138704466080_"  style="overflow:visible;"/>
		</clipPath>
		<g style="clip-path:url(#SVGID_00000016064327522964378680000005814420807295478162_);">
			
				<use xlink:href="#U0041"  width="220" height="340" x="-110" y="-170" transform="matrix(1 0 0 -1 396.33 170)" style="overflow:visible;"/>
		</g>
	</g>
	<g>
		<defs>
			<rect id="SVGID_00000131348772552154178570000001143414966957203901_" x="572.7" width="222" height="360"/>
		</defs>
		<clipPath id="SVGID_00000005952981630958371170000009268488030327010716_">
			<use xlink:href="#SVGID_00000131348772552154178570000001143414966957203901_"  style="overflow:visible;"/>
		</clipPath>
		<g style="clip-path:url(#SVGID_00000005952981630958371170000009268488030327010716_);">
			
				<use xlink:href="#All"  width="222" height="360" x="-111" y="-180" transform="matrix(1 0 0 -1 683.67 180)" style="overflow:visible;"/>
		</g>
	</g>
	<g>
		<defs>
			<rect id="SVGID_00000078017804227348273630000007146731499637153972_" x="572.7" width="220" height="340"/>
		</defs>
		<clipPath id="SVGID_00000165220779745687201660000009720396883812631435_">
			<use xlink:href="#SVGID_00000078017804227348273630000007146731499637153972_"  style="overflow:visible;"/>
		</clipPath>
		<g style="clip-path:url(#SVGID_00000165220779745687201660000009720396883812631435_);">
			
				<use xlink:href="#U0050"  width="220" height="340" x="-110" y="-170" transform="matrix(1 0 0 -1 682.67 170)" style="overflow:visible;"/>
		</g>
	</g>
	<g>
		<defs>
			<rect id="SVGID_00000063617282310878694530000014273820363979831196_" x="859" width="222" height="360"/>
		</defs>
		<clipPath id="SVGID_00000052816984369342106390000014400020105352668349_">
			<use xlink:href="#SVGID_00000063617282310878694530000014273820363979831196_"  style="overflow:visible;"/>
		</clipPath>
		<g style="clip-path:url(#SVGID_00000052816984369342106390000014400020105352668349_);">
			
				<use xlink:href="#All"  width="222" height="360" x="-111" y="-180" transform="matrix(1 0 0 -1 970 180)" style="overflow:visible;"/>
		</g>
	</g>
	<g>
		<defs>
			<rect id="SVGID_00000052797732436899294710000011628280993143296160_" x="859" width="200" height="360"/>
		</defs>
		<clipPath id="SVGID_00000101104588687646182960000011320033309819087278_">
			<use xlink:href="#SVGID_00000052797732436899294710000011628280993143296160_"  style="overflow:visible;"/>
		</clipPath>
		<g style="clip-path:url(#SVGID_00000101104588687646182960000011320033309819087278_);">
			
				<use xlink:href="#U0043"  width="200" height="360" x="-100" y="-180" transform="matrix(1 0 0 -1 959 180)" style="overflow:visible;"/>
		</g>
	</g>
	<g>
		<defs>
			<rect id="SVGID_00000033351421032447869130000003953994795985207977_" y="497" width="222" height="360"/>
		</defs>
		<clipPath id="SVGID_00000045582576391851219400000006163134677503797164_">
			<use xlink:href="#SVGID_00000033351421032447869130000003953994795985207977_"  style="overflow:visible;"/>
		</clipPath>
		<g style="clip-path:url(#SVGID_00000045582576391851219400000006163134677503797164_);">
			
				<use xlink:href="#All"  width="222" height="360" x="-111" y="-180" transform="matrix(1 0 0 -1 111 677)" style="overflow:visible;"/>
		</g>
	</g>
	<g>
		<defs>
			<rect id="SVGID_00000127760520741214208200000012567369771532423589_" y="497" width="220" height="360"/>
		</defs>
		<clipPath id="SVGID_00000097463876412942132090000015943072128329406339_">
			<use xlink:href="#SVGID_00000127760520741214208200000012567369771532423589_"  style="overflow:visible;"/>
		</clipPath>
		<g style="clip-path:url(#SVGID_00000097463876412942132090000015943072128329406339_);">
			
				<use xlink:href="#U0032"  width="220" height="360" x="-110" y="-180" transform="matrix(1 0 0 -1 110 677)" style="overflow:visible;"/>
		</g>
	</g>
	<g>
		<defs>
			<rect id="SVGID_00000072977308802648285170000016762599600730768777_" x="580.7" y="497" width="222" height="360"/>
		</defs>
		<clipPath id="SVGID_00000045581131866262430030000012842889223949220532_">
			<use xlink:href="#SVGID_00000072977308802648285170000016762599600730768777_"  style="overflow:visible;"/>
		</clipPath>
		<g style="clip-path:url(#SVGID_00000045581131866262430030000012842889223949220532_);">
			
				<use xlink:href="#All"  width="222" height="360" x="-111" y="-180" transform="matrix(1 0 0 -1 691.67 677)" style="overflow:visible;"/>
		</g>
	</g>
	<g>
		<defs>
			<rect id="SVGID_00000175288411102470032620000012533859896529534103_" x="580.7" y="497" width="220" height="360"/>
		</defs>
		<clipPath id="SVGID_00000164493179104988734100000007906578574087031472_">
			<use xlink:href="#SVGID_00000175288411102470032620000012533859896529534103_"  style="overflow:visible;"/>
		</clipPath>
		<g style="clip-path:url(#SVGID_00000164493179104988734100000007906578574087031472_);">
			
				<use xlink:href="#U0032"  width="220" height="360" x="-110" y="-180" transform="matrix(1 0 0 -1 690.67 677)" style="overflow:visible;"/>
		</g>
	</g>
	<g>
		<defs>
			<rect id="SVGID_00000049937810739658599820000005402141486978131340_" x="871" y="497" width="222" height="360"/>
		</defs>
		<clipPath id="SVGID_00000122693457819528657280000006639181854814674091_">
			<use xlink:href="#SVGID_00000049937810739658599820000005402141486978131340_"  style="overflow:visible;"/>
		</clipPath>
		<g style="clip-path:url(#SVGID_00000122693457819528657280000006639181854814674091_);">
			
				<use xlink:href="#All"  width="222" height="360" x="-111" y="-180" transform="matrix(1 0 0 -1 982 677)" style="overflow:visible;"/>
		</g>
	</g>
	<g>
		<defs>
			<rect id="SVGID_00000071522547184985836380000015312733863058852797_" x="871" y="497" width="220" height="360"/>
		</defs>
		<clipPath id="SVGID_00000034091374790427025390000013604711181286092678_">
			<use xlink:href="#SVGID_00000071522547184985836380000015312733863058852797_"  style="overflow:visible;"/>
		</clipPath>
		<g style="clip-path:url(#SVGID_00000034091374790427025390000013604711181286092678_);">
			
				<use xlink:href="#U0032"  width="220" height="360" x="-110" y="-180" transform="matrix(1 0 0 -1 981 677)" style="overflow:visible;"/>
		</g>
	</g>
	<g>
		<defs>
			<rect id="SVGID_00000041277462534614093560000016347745096858371484_" x="290.3" y="498" width="222" height="360"/>
		</defs>
		<clipPath id="SVGID_00000150077553845938839170000012142216878235006619_">
			<use xlink:href="#SVGID_00000041277462534614093560000016347745096858371484_"  style="overflow:visible;"/>
		</clipPath>
		<g style="clip-path:url(#SVGID_00000150077553845938839170000012142216878235006619_);">
			
				<use xlink:href="#All"  width="222" height="360" x="-111" y="-180" transform="matrix(1 0 0 -1 401.33 678)" style="overflow:visible;"/>
		</g>
	</g>
	<g>
		<defs>
			<rect id="SVGID_00000179621974078768558400000008436825386319229111_" x="290.3" y="498" width="220" height="360"/>
		</defs>
		<clipPath id="SVGID_00000053539573486758411950000016857108459767053725_">
			<use xlink:href="#SVGID_00000179621974078768558400000008436825386319229111_"  style="overflow:visible;"/>
		</clipPath>
		<g style="clip-path:url(#SVGID_00000053539573486758411950000016857108459767053725_);">
			
				<use xlink:href="#U0030"  width="220" height="360" x="-110" y="-180" transform="matrix(1 0 0 -1 400.33 678)" style="overflow:visible;"/>
		</g>
	</g>
</g>
</svg>
